<svg width="300" height="300" viewBox="0 0 300 300" fill="none" xmlns="http://www.w3.org/2000/svg">
<rect width="300" height="300" rx="50" fill="#1D1F24"/>
<path fill-rule="evenodd" clip-rule="evenodd" d="M150.107 56.2538C220.742 68.1194 270 108.435 270 172.804C270 249.957 208.806 169.793 166.61 214.776C124.414 259.758 34.5142 261.034 30.2138 172.804C26.1882 90.2102 79.472 44.3882 150.107 56.2538Z" fill="#582FFF"/>
<path fill-rule="evenodd" clip-rule="evenodd" d="M114.001 180.982L132.686 156.812L133.115 157.151C135.874 159.321 138.062 160.75 139.68 161.441L140.158 161.643C147.927 164.911 153.269 166.021 152.41 166.789L151.347 167.744C144.481 173.942 135.08 182.956 123.143 194.784C121.509 196.546 119.306 197.676 116.926 197.977L114.465 198.271C90.3034 201.131 74.8025 201.378 69.1223 200.12C67.936 199.858 64.2847 200.544 61.5279 203.313C57.3927 207.467 51.4793 217.472 50.4862 217.472C49.0425 217.472 50.4029 210.845 54.5674 197.59L55.0075 196.05C56.9477 189.324 58.3435 185.347 59.1948 184.119C60.1092 182.8 63.1979 185.128 68.461 191.103L68.3183 191.88C69.0013 191.087 69.8111 190.244 70.7475 189.351L73.2342 189.053C82.0191 187.986 88.6966 187.011 93.2667 186.127L93.7479 186.032C98.6995 185.051 105.45 183.368 114.001 180.982Z" fill="#131416"/>
<path fill-rule="evenodd" clip-rule="evenodd" d="M230.356 155.941L237.303 161.177C238.636 162.18 239.614 163.587 240.09 165.187L241.406 169.594C242.026 170.928 241.484 172.512 240.178 173.186L237.725 175.007C236.147 175.821 234.223 174.939 233.808 173.211L232.428 168.299C232.428 168.299 226.573 166.52 225.794 159.552L230.356 155.941Z" fill="#131416"/>
<path fill-rule="evenodd" clip-rule="evenodd" d="M196.87 69.9571C201.617 70.1502 204.002 76.6557 205.555 79.8715C206.083 80.967 202.365 113.343 201.15 121.628C198.986 136.382 192.447 141.06 188.342 142.065C188.342 142.065 188.588 158.839 186.868 163.014C183.061 172.258 134.868 166.053 130.158 150.603C126.938 140.04 138.903 138.809 143.394 132.441C151.625 120.769 152.052 109.907 160.918 102.136C164.277 98.4541 168.178 94.7582 171.543 90.3141L172.911 88.5131C181.469 77.3017 187.985 69.8633 196.424 69.9457L196.87 69.9571Z" fill="#131416"/>
<path fill-rule="evenodd" clip-rule="evenodd" d="M173.067 98.0208C172.281 98.3999 171.131 98.5176 170.721 97.7474C169.434 95.3292 165.495 94.9968 163.821 97.1649C165.428 96.6127 167.3 96.0856 168.736 96.9927C169.136 97.2452 169.481 97.599 169.823 97.9492C170.393 98.5325 170.952 99.1055 171.736 99.1824C172.319 99.2395 172.874 98.9942 173.426 98.75C174.018 98.4879 174.608 98.2272 175.226 98.3434C175.912 98.4724 176.393 99.018 176.874 99.5638C177.353 100.108 177.833 100.652 178.516 100.784C179.075 100.892 179.637 100.692 180.194 100.493C180.816 100.271 181.432 100.051 182.031 100.266C182.746 100.524 183.072 101.261 183.399 101.998C183.725 102.732 184.05 103.466 184.758 103.73C185.178 103.886 185.631 103.83 186.078 103.742L186.522 103.652C187.568 103.444 188.697 103.425 189.654 103.896C190.476 104.3 191.123 105.137 191.176 106.031C191.198 105.838 191.217 105.646 191.233 105.454L191.399 104.366C190.45 103.253 188.96 102.622 187.5 102.719C187.25 102.736 186.999 102.773 186.75 102.809C186.269 102.879 185.789 102.95 185.312 102.877C184.586 102.767 183.85 102.149 183.972 101.427L183.983 101.349C184.116 100.138 182.493 99.4437 181.247 99.5457C180.982 99.5673 180.71 99.6025 180.437 99.638C179.398 99.773 178.335 99.9111 177.518 99.3135C177.203 99.0826 176.959 98.7593 176.718 98.4391C176.38 97.9912 176.047 97.5493 175.528 97.3751C174.955 97.1826 174.373 97.3844 173.808 97.6526L173.62 97.744L173.067 98.0208ZM164.025 106.44C164.566 107.166 165.68 106.759 166.54 106.445L166.585 106.429C168.891 105.588 171.669 106.244 173.354 108.028C174.278 109.007 175.646 108.733 177.061 108.45C178.244 108.214 179.46 107.97 180.479 108.445C180.956 108.667 181.399 109.042 181.832 109.409C182.627 110.083 183.391 110.731 184.282 110.364C185.971 109.668 188.044 110.039 189.4 111.257L189.396 111.641L189.39 112.487C188.042 111.137 185.859 110.7 184.095 111.427C183.204 111.794 182.439 111.145 181.645 110.472C181.211 110.104 180.769 109.729 180.292 109.507C179.272 109.033 178.056 109.276 176.874 109.513C175.458 109.796 174.091 110.069 173.167 109.091C171.515 107.342 168.814 106.677 166.536 107.443L166.082 107.606C165.271 107.893 164.323 108.154 163.837 107.502C162.305 105.446 159.228 104.725 156.941 105.886L157.237 104.771L157.372 104.709C159.63 103.714 162.546 104.455 164.025 106.44ZM158.774 115.612C157.927 115.958 156.829 116.408 156.261 115.703C155.225 114.418 152.858 114.325 149.161 115.422C149.444 115.614 150.173 115.595 151.072 115.571C152.766 115.527 155.063 115.468 156.114 116.772C156.625 117.405 157.561 117.107 158.361 116.789L158.809 116.609C161.055 115.756 163.781 116.317 165.498 118.001C166.459 118.943 167.815 118.617 169.218 118.28C170.391 117.998 171.597 117.709 172.634 118.144C173.119 118.347 173.575 118.705 174.023 119.055C174.842 119.698 175.631 120.316 176.507 119.916L176.629 119.862C177.622 119.443 179.528 120.149 181.257 120.789C182.514 121.254 183.677 121.685 184.324 121.622C180.318 119.265 177.761 118.34 176.654 118.847L176.566 118.884C175.725 119.206 174.961 118.607 174.169 117.986C173.722 117.636 173.265 117.278 172.78 117.075C171.743 116.64 170.537 116.929 169.365 117.211C167.961 117.548 166.605 117.874 165.644 116.932C163.892 115.214 161.09 114.664 158.818 115.594L158.774 115.612ZM166.628 154.527C167.644 155.179 168.961 156.024 169.901 155.56C171.562 154.742 174.554 155.468 178.879 157.74L179.294 157.962C178.871 158.04 177.919 157.747 176.746 157.386C174.535 156.707 171.538 155.785 169.799 156.643C168.954 157.059 167.807 156.421 166.846 155.814L166.308 155.472C163.77 153.915 160.342 153.389 157.685 154.124C156.833 154.478 155.647 154.063 154.343 153.607C153.457 153.297 152.516 152.968 151.589 152.849C150.446 152.702 149.858 152.79 149.341 152.867C148.823 152.945 148.377 153.011 147.516 152.819C146.851 152.67 145.788 152.205 144.327 151.424C141.737 150.181 137.148 150.331 134.732 151.196L134.602 151.241C132.02 152.094 132.041 151.159 134.638 150.185L134.835 150.113L134.99 150.059C137.75 149.141 142.86 149.241 145.535 150.957L145.588 150.991C146.604 151.643 147.921 152.488 148.861 152.024L148.93 151.993C149.588 151.722 151.127 151.727 151.604 151.759L151.691 151.766C153.297 151.944 153.646 152.089 154.028 152.368L154.302 152.575L154.458 152.635C155.038 152.861 155.654 153.128 156.305 153.437C156.574 153.413 156.883 153.342 157.249 153.211L157.404 153.158C160.164 152.239 163.901 152.777 166.575 154.493L166.628 154.527ZM154.672 123.703C155.273 124.408 156.435 123.958 157.331 123.612L157.378 123.594C159.781 122.664 162.745 123.214 164.599 124.932C165.616 125.874 167.05 125.548 168.535 125.211C169.775 124.929 171.051 124.64 172.148 125.075C172.661 125.278 173.144 125.636 173.618 125.986C174.456 126.607 175.263 127.206 176.153 126.884L176.246 126.847C177.418 126.34 180.123 127.265 184.361 129.622C183.676 129.685 182.446 129.254 181.116 128.789C179.287 128.149 177.27 127.443 176.22 127.862L176.091 127.916C175.165 128.316 174.33 127.698 173.463 127.055C172.989 126.705 172.506 126.347 171.993 126.144C170.896 125.709 169.62 125.998 168.38 126.28C166.895 126.617 165.461 126.943 164.444 126.001C162.627 124.317 159.744 123.756 157.368 124.609L156.894 124.789C156.048 125.107 155.057 125.405 154.517 124.772C153.404 123.468 150.975 123.527 149.183 123.571C148.232 123.595 147.46 123.614 147.161 123.422C151.073 122.325 153.576 122.418 154.672 123.703ZM154.062 132.412C153.031 132.758 151.695 133.208 151.003 132.503C149.742 131.218 146.861 131.125 142.361 132.222C142.705 132.414 143.593 132.395 144.687 132.371C146.749 132.327 149.544 132.268 150.824 133.572C151.446 134.205 152.586 133.907 153.559 133.589L154.104 133.409C156.839 132.556 160.156 133.117 162.246 134.801C163.416 135.743 165.066 135.417 166.774 135.08C168.201 134.798 169.669 134.509 170.932 134.944C171.522 135.147 172.077 135.505 172.622 135.855C173.62 136.498 174.58 137.116 175.646 136.716L175.795 136.662C177.003 136.243 179.324 136.949 181.427 137.589C182.958 138.054 184.373 138.485 185.161 138.422C180.285 136.065 177.172 135.14 175.825 135.647L175.717 135.684C174.694 136.006 173.765 135.407 172.8 134.786C172.256 134.436 171.7 134.078 171.11 133.875C169.848 133.44 168.38 133.729 166.952 134.011C165.244 134.348 163.594 134.674 162.424 133.732C160.291 132.014 156.881 131.464 154.116 132.394L154.062 132.412ZM146.052 139.303C146.829 140.008 148.327 139.558 149.483 139.212L149.544 139.194C152.645 138.264 156.47 138.814 158.862 140.532C160.174 141.474 162.024 141.148 163.94 140.811C165.541 140.529 167.187 140.24 168.603 140.675C169.265 140.878 169.888 141.236 170.498 141.586C171.58 142.207 172.622 142.806 173.77 142.484L173.89 142.447C175.402 141.94 178.892 142.865 184.361 145.222C183.477 145.285 181.89 144.854 180.173 144.389C177.814 143.749 175.212 143.043 173.857 143.462L173.69 143.516C172.495 143.916 171.418 143.298 170.299 142.655C169.688 142.305 169.065 141.947 168.403 141.744C166.987 141.309 165.341 141.598 163.74 141.88C161.824 142.217 159.974 142.543 158.662 141.601C156.318 139.917 152.598 139.356 149.531 140.209L148.919 140.389C147.828 140.707 146.549 141.005 145.853 140.372C144.417 139.068 141.282 139.127 138.97 139.171C137.742 139.195 136.747 139.214 136.361 139.022C141.408 137.925 144.639 138.018 146.052 139.303ZM145.883 145.212C144.727 145.558 143.229 146.008 142.452 145.303C141.039 144.018 137.808 143.925 132.761 145.022C133.147 145.214 134.142 145.195 135.37 145.171C137.682 145.127 140.817 145.068 142.253 146.372C142.949 147.005 144.228 146.707 145.319 146.389L145.931 146.209C148.8 145.411 152.24 145.85 154.591 147.289C155.313 147.865 156.567 147.793 157.946 147.713C158.884 147.66 159.879 147.602 160.803 147.744C161.941 147.918 162.483 148.164 162.958 148.381C163.435 148.598 163.846 148.785 164.726 148.838C165.747 148.898 168.176 148.376 168.176 148.376C171.008 147.895 175.378 149.304 177.462 150.801L177.575 150.88C179.877 152.45 180.069 151.461 177.662 149.732L177.528 149.638C175.128 147.994 170.188 146.682 167.144 147.594L167.084 147.612C165.927 147.958 164.429 148.408 163.652 147.703C163.111 147.211 161.343 146.733 161.003 146.675C159.201 146.367 158.957 146.464 158.41 146.679C158.366 146.696 158.32 146.714 158.271 146.733L158.104 146.747C157.484 146.805 156.819 146.892 156.108 147.009C155.856 146.912 155.578 146.759 155.262 146.532L155.128 146.438C152.728 144.794 148.988 144.282 145.944 145.194L145.883 145.212Z" fill="#FFB61D"/>
<path fill-rule="evenodd" clip-rule="evenodd" d="M195.339 74.8275C202.087 74.8507 207.413 80.576 206.958 87.316C206.958 87.316 199.088 121.552 203.077 133.72C204.62 138.428 226.899 153.078 225.958 154.582L222.814 162.115C221.696 163.898 187.501 141.024 187.501 141.024C184.221 138.42 183.611 86.6429 183.611 86.6429C183.546 80.122 188.823 74.8046 195.339 74.8275Z" fill="#131417"/>
<path d="M230.759 155.942L226.741 164.216L226.66 164.438C226.326 165.295 225.048 165.82 224.884 165.862L224.86 165.862L222.486 164.457C222.215 164.229 222.066 162.948 222.353 161.756L222.421 161.506C222.421 161.506 224.302 154.897 225.86 153.228C226.769 152.255 232.018 153.228 230.759 155.942Z" fill="#131417"/>
<path fill-rule="evenodd" clip-rule="evenodd" d="M173.511 232.252H163.918C163.918 232.252 175.177 203.02 175.177 195.349C175.177 192.97 166.327 196.554 167.611 192.97C169.376 188.041 175.485 179.226 173.98 174.801C172.407 170.174 166.537 168.497 161.426 166.622C160.446 166.263 178.313 167.503 183.214 163.605C189.679 158.463 184.43 147.106 186.166 151.11C188.261 155.941 201.872 168.061 199.174 181.186C196.546 193.972 173.511 232.252 173.511 232.252Z" fill="#131417"/>
<path fill-rule="evenodd" clip-rule="evenodd" d="M170.186 237.889L169.295 237.594C169.212 237.566 169.202 237.453 169.279 237.411L170.133 236.947V235.869C170.133 235.783 170.234 235.737 170.299 235.794L171.006 236.415L172.168 235.803C172.256 235.757 172.35 235.853 172.302 235.94L171.64 237.148L172.924 238.489C172.994 238.563 172.922 238.683 172.824 238.654L171.057 238.145L170.373 239.35C170.322 239.44 170.186 239.404 170.186 239.301V238.784V237.889Z" fill="#FFB61D"/>
<path fill-rule="evenodd" clip-rule="evenodd" d="M145.865 173.375C145.448 173.808 145.035 174.246 144.623 174.684C143.843 175.512 143.064 176.341 142.251 177.135C140.73 178.623 139.194 180.101 137.58 181.485C135.578 183.201 133.526 184.864 131.428 186.461C129.053 188.268 126.621 190.001 124.179 191.716C124.049 191.807 123.92 191.899 123.791 191.99C122.545 192.874 121.3 193.757 119.699 194.03C119.242 194.108 118.815 194.337 118.384 194.568C118.042 194.751 117.697 194.936 117.335 195.046C114.839 195.803 112.329 196.523 109.804 197.177C108.254 197.579 106.671 197.865 105.092 198.14C104.109 198.311 98.4797 199.206 94.7346 199.75C90.9896 200.293 78.6037 200.293 75.5114 200.229C73.7762 200.193 72.0413 200.132 70.3069 200.066L70.2174 200.063C69.8639 200.05 69.4884 200.037 69.1813 199.898C67.4779 199.126 66.1598 199.967 64.8242 200.818L64.728 200.88C62.9744 201.997 61.9012 203.677 60.8407 205.398C60.2773 206.313 59.6804 207.206 59.0834 208.1C58.441 209.062 57.7986 210.024 57.1981 211.011C56.4031 212.318 55.694 213.679 54.9858 215.038L54.9852 215.04C54.8581 215.284 54.7309 215.528 54.6033 215.771C53.6669 217.559 52.2623 218.599 50.247 218.983C49.2453 219.174 48.3873 218.877 47.5313 218.58L47.531 218.58C47.2139 218.47 46.8971 218.361 46.5733 218.276C45.9395 218.11 45.4285 216.397 45.6546 215.719C46.3142 213.742 46.9751 211.764 47.636 209.787L47.6366 209.785L47.6371 209.784L47.6383 209.78L47.6385 209.78C49.0196 205.648 50.4008 201.516 51.7699 197.38C52.7263 194.491 53.6601 191.595 54.5939 188.698L54.594 188.698L54.5953 188.693C54.8587 187.876 55.1221 187.059 55.386 186.243C55.5118 185.853 55.6314 185.462 55.7509 185.07L55.7509 185.07C55.9491 184.42 56.1473 183.771 56.3741 183.132C56.4484 182.923 56.7559 182.664 56.965 182.656C58.476 182.595 59.9267 182.966 61.3051 183.531C63.9109 184.601 65.9162 186.404 67.3881 188.805C67.7784 189.442 68.4596 189.671 69.3188 189.519C69.7333 189.446 70.1516 189.391 70.5697 189.336L70.5699 189.336L70.5701 189.336L70.5703 189.336L70.5705 189.336L70.5707 189.336L70.5709 189.335L70.571 189.335C71.2092 189.251 71.8469 189.167 72.47 189.019C73.8568 188.69 75.2607 188.679 76.664 188.668C77.5676 188.66 78.471 188.653 79.3696 188.561C79.9873 188.498 80.6082 188.462 81.2289 188.426C82.0578 188.378 82.8863 188.329 83.7063 188.217C85.1987 188.011 86.6837 187.753 88.1688 187.494C88.8724 187.371 89.576 187.249 90.2804 187.132C90.85 187.037 91.4206 186.948 91.9911 186.859L91.9915 186.858L91.9919 186.858L91.9923 186.858L91.9926 186.858L91.993 186.858L91.9934 186.858L91.994 186.858C93.0954 186.686 94.1969 186.513 95.2911 186.303C96.6907 186.035 98.0793 185.707 99.4672 185.38L99.4677 185.38L99.9694 185.261C101.437 184.916 102.902 184.559 104.367 184.203C104.983 184.053 105.598 183.903 106.214 183.754C106.25 183.745 106.286 183.736 106.322 183.727C106.382 183.712 106.443 183.696 106.503 183.681C106.469 183.663 106.436 183.646 106.402 183.628L106.402 183.628C106.329 183.591 106.257 183.553 106.187 183.51C105.974 183.379 105.755 183.255 105.535 183.13L105.535 183.13L105.535 183.13C105.034 182.846 104.532 182.562 104.105 182.192C103.146 181.36 103.474 179.977 104.693 179.608C105.623 179.327 106.581 179.046 107.541 178.981C108.834 178.895 110.012 178.465 111.192 178.035C111.666 177.862 112.14 177.69 112.621 177.539C113.758 177.183 114.44 176.514 115.011 175.49C115.286 174.997 115.689 174.579 116.094 174.159C116.378 173.863 116.664 173.567 116.907 173.242C118.164 171.562 119.386 169.855 120.576 168.126C120.829 167.759 121.032 167.357 121.236 166.955C121.391 166.648 121.547 166.34 121.725 166.048C122.142 165.361 122.567 164.666 123.083 164.055L123.151 163.974C124.334 162.572 125.52 161.165 126.807 159.86C127.509 159.149 128.283 158.509 129.057 157.87L129.057 157.87L129.058 157.87L129.058 157.87L129.058 157.869L129.058 157.869L129.058 157.869C129.424 157.567 129.789 157.266 130.147 156.956C130.328 156.8 130.502 156.631 130.654 156.447C130.915 156.131 131.022 155.868 130.628 155.495C130.526 155.397 130.423 155.3 130.319 155.203C129.291 154.236 128.253 153.26 127.69 151.922L127.614 151.74L127.513 151.501C127.061 150.436 126.606 149.361 126.349 148.245C126.003 146.744 126.143 145.216 126.59 143.703C127.217 141.586 128.528 139.982 130.304 138.83C131.399 138.12 132.552 137.499 133.705 136.878L133.705 136.877C134.56 136.417 135.414 135.957 136.246 135.46C136.889 135.076 137.439 134.516 137.975 133.971L137.976 133.971C138.027 133.919 138.078 133.867 138.129 133.815C140.545 131.371 142.228 128.414 143.905 125.467C144.083 125.154 144.262 124.841 144.441 124.529C146.062 121.7 147.516 118.773 148.966 115.851C149.384 115.009 149.741 114.138 150.099 113.267L150.099 113.266L150.099 113.266L150.1 113.266L150.1 113.266L150.1 113.266L150.1 113.266L150.1 113.266L150.1 113.265C150.416 112.495 150.732 111.725 151.09 110.975C151.373 110.382 151.721 109.822 152.07 109.26L152.07 109.26C152.327 108.848 152.583 108.435 152.814 108.009C153.062 107.552 153.288 107.082 153.514 106.612C153.856 105.9 154.198 105.189 154.615 104.524C154.912 104.048 155.343 103.656 155.774 103.265L155.774 103.265L155.774 103.265L155.774 103.265L155.774 103.265L155.774 103.265L155.774 103.265L155.774 103.265L155.774 103.265C155.954 103.101 156.135 102.937 156.305 102.768C156.517 102.556 156.733 102.348 156.949 102.14C157.174 101.923 157.399 101.707 157.62 101.486C158.01 101.096 158.394 100.701 158.768 100.296C159.484 99.518 160.205 98.7433 160.926 97.9687L160.928 97.9664C162.707 96.0541 164.487 94.1418 166.207 92.1778C168.223 89.8768 170.14 87.486 172.024 85.0742C172.773 84.1155 173.447 83.0989 174.122 82.0823L174.123 82.0816C174.423 81.6288 174.724 81.176 175.031 80.7283C175.048 80.7031 175.063 80.6754 175.077 80.6478L175.077 80.6476C175.097 80.6082 175.118 80.5689 175.147 80.5371C175.634 79.9999 176.117 79.4576 176.599 78.9154C177.732 77.6422 178.866 76.3689 180.064 75.1612C181.843 73.3691 183.881 71.8831 186.093 70.6455C186.43 70.4568 186.755 70.2426 187.08 70.0286C187.592 69.6915 188.103 69.355 188.658 69.1203L188.752 69.0801L188.85 69.0386L189.053 68.9512L189.053 68.9511C190.114 68.4956 191.225 68.018 192.32 67.9956C194.629 67.9483 197.03 67.9744 198.968 69.6068C199.336 69.9161 199.434 69.8432 199.468 69.4296C199.501 69.0345 199.568 68.6277 199.635 68.2207C199.792 67.2727 199.948 66.3239 199.676 65.5215C199.511 65.0365 199.454 64.5469 199.396 64.0616C199.332 63.5127 199.268 62.9691 199.051 62.4436C198.324 60.6866 197.675 58.8968 197.026 57.1078L197.019 57.0883L197.013 57.0725C196.92 56.8151 196.826 56.5578 196.733 56.3005C196.53 55.7422 196.365 55.1558 196.289 54.5685C196.236 54.1488 196.218 53.7244 196.199 53.3C196.181 52.8644 196.162 52.4289 196.105 51.9985C195.902 50.4674 196.432 49.1221 196.965 47.7715C197.062 47.5249 197.16 47.2782 197.253 47.0301C198.385 44.0081 200.507 41.7226 202.797 39.5763C204.769 37.7284 208.036 37.147 210.678 36.6913C211.654 36.523 218.504 36.362 222.122 36.277C223.302 36.2493 224.138 36.2296 224.314 36.2205C225.027 36.1832 225.51 35.8513 225.993 35.495C226.991 34.7595 227.247 33.6188 227.499 32.4964L227.499 32.4939L227.5 32.4915L227.5 32.4891L227.501 32.4867L227.501 32.4844C227.525 32.3778 227.549 32.2713 227.574 32.1654C227.58 32.1394 227.586 32.114 227.591 32.0892L227.591 32.0871C227.656 31.7928 227.702 31.5865 228.145 31.6013C229.622 31.6509 230.382 32.6156 231.105 33.7179C231.919 34.9591 232.579 36.2534 232.806 37.7329C233.081 39.5344 232.933 41.2077 231.652 42.6912C230.61 43.8978 229.398 44.82 228.028 45.5938C227.846 45.6965 227.731 46.2405 227.832 46.4728C228.864 48.8541 228.941 51.3645 228.84 53.8848C228.815 54.4966 228.716 55.1051 228.617 55.7137C228.523 56.2904 228.429 56.8672 228.399 57.4471C228.311 59.1102 228.651 60.7097 229.318 62.2563C229.771 63.3055 229.453 64.2992 228.694 65.1238C228.564 65.2651 228.402 65.3833 228.242 65.5005C228.016 65.6655 227.792 65.8284 227.665 66.0506C227.377 66.5533 227.176 67.1582 227.129 67.7347C227.093 68.1759 227.14 68.6229 227.188 69.0709C227.217 69.3492 227.247 69.628 227.257 69.9061C227.294 70.9763 226.887 71.8916 226.338 72.8053C225.344 74.4585 224.033 75.6749 222.13 76.0731C220.5 76.4143 218.806 76.4345 217.232 75.8979C215.445 75.2887 213.702 74.5089 212.02 73.6464C211.542 73.4014 211.164 72.9614 210.786 72.5216C210.617 72.3248 210.448 72.1281 210.27 71.949C210.007 71.6837 209.874 71.6067 209.524 71.9774C208.274 73.3015 207.365 74.8058 206.63 76.4666C206.225 77.3832 206.488 78.1366 206.768 78.9392L206.801 79.0336L206.88 79.2625C207.269 80.3736 207.655 81.4792 207.625 82.695C207.61 83.2975 207.622 83.9019 207.633 84.5059C207.652 85.4602 207.67 86.4138 207.584 87.3584C207.491 88.3689 207.264 89.3673 207.037 90.3654C206.946 90.7671 206.855 91.1687 206.772 91.571C206.685 91.9981 206.599 92.4256 206.513 92.8532C206.254 94.1465 205.994 95.4399 205.685 96.7209C205.541 97.3139 205.344 97.8936 205.147 98.4735L205.147 98.4737L205.147 98.4739L205.146 98.474L205.146 98.4742L205.146 98.4744L205.146 98.4746L205.146 98.4748C204.985 98.9488 204.824 99.423 204.692 99.9049C204.539 100.464 204.383 101.023 204.228 101.581C203.625 103.753 203.022 105.926 202.533 108.123C202.115 110.005 201.874 111.941 201.734 113.867C201.646 115.07 201.659 116.28 201.672 117.491V117.491V117.491V117.492V117.492V117.492V117.492V117.492V117.494C201.68 118.163 201.687 118.832 201.677 119.5C201.67 120.006 201.644 120.511 201.617 121.017V121.017V121.018V121.018V121.018V121.019V121.019V121.019C201.584 121.661 201.551 122.303 201.556 122.944C201.558 123.2 201.56 123.457 201.562 123.713C201.573 125.409 201.584 127.109 201.733 128.794C201.882 130.476 202.201 132.151 202.57 133.801C202.873 135.157 203.802 136.204 204.724 137.187C205.204 137.698 205.736 138.16 206.269 138.621C206.641 138.945 207.014 139.268 207.369 139.608C207.612 139.841 207.831 140.101 208.05 140.361C208.322 140.684 208.594 141.006 208.911 141.276C209.946 142.157 211 143.017 212.053 143.878C212.852 144.53 213.651 145.182 214.442 145.844C215.152 146.437 215.851 147.043 216.55 147.649L216.551 147.65C217.257 148.263 217.964 148.875 218.681 149.474C219.661 150.293 220.656 151.101 221.695 151.844C222.184 152.193 222.696 152.51 223.208 152.827L223.208 152.827L223.209 152.828L223.209 152.828L223.209 152.828L223.209 152.828L223.21 152.828L223.21 152.828L223.21 152.828C223.739 153.156 224.268 153.484 224.772 153.847C225.377 154.284 225.847 154.038 226.313 153.794C226.474 153.71 226.635 153.625 226.8 153.57C228.146 153.115 229.21 153.287 229.715 154.581C229.816 154.84 229.97 155.073 230.125 155.307L230.125 155.307C230.408 155.734 230.694 156.166 230.669 156.768C230.661 156.956 231.068 157.181 231.416 157.373C231.5 157.419 231.58 157.464 231.65 157.505C232.675 158.11 233.712 158.694 234.75 159.276C234.971 159.4 235.2 159.514 235.429 159.627L235.429 159.627C235.87 159.845 236.31 160.063 236.692 160.356C237.082 160.655 237.436 161.001 237.79 161.347C238.145 161.694 238.499 162.041 238.89 162.341C239.696 162.957 240.152 163.806 240.606 164.649C240.772 164.959 240.938 165.268 241.121 165.564C241.627 166.383 241.919 167.388 242.087 168.348C242.313 169.643 242.405 170.975 242.4 172.29C242.397 172.839 242.064 173.429 241.758 173.925C241.428 174.459 240.934 174.535 240.458 174.019C240.418 173.977 240.364 173.949 240.309 173.921C240.283 173.908 240.258 173.896 240.234 173.881C240.231 173.913 240.227 173.946 240.224 173.978L240.215 174.059C240.212 174.085 240.209 174.112 240.206 174.139C240.204 174.155 240.202 174.171 240.199 174.187C240.169 174.407 240.145 174.63 240.12 174.852L240.12 174.853C240.061 175.402 240.001 175.951 239.847 176.471C239.744 176.82 239.296 177.281 238.985 177.296C238.747 177.308 238.495 177.085 238.247 176.866C238.147 176.777 238.048 176.689 237.95 176.617C237.854 176.547 237.773 176.455 237.693 176.365L237.693 176.365L237.667 176.336C237.617 176.279 237.572 176.218 237.528 176.157L237.509 176.13C237.495 176.112 237.482 176.094 237.468 176.075L237.439 176.138L237.424 176.17C237.391 176.24 237.359 176.31 237.324 176.378C237.279 176.467 237.24 176.561 237.201 176.655C237.113 176.867 237.025 177.079 236.873 177.223C236.287 177.782 235.498 177.564 235.256 176.78C235.131 176.372 235.026 175.958 234.922 175.543L234.922 175.543C234.777 174.969 234.632 174.395 234.432 173.841C234.349 173.612 234.281 173.379 234.212 173.146C234.012 172.464 233.812 171.781 233.25 171.207C232.846 170.793 232.599 170.223 232.353 169.655C232.257 169.434 232.161 169.213 232.056 169.002C231.426 167.733 230.385 166.903 229.181 166.234C228.854 166.051 228.528 165.851 228.244 165.61C227.612 165.073 227.175 165.365 226.792 165.911C226.157 166.813 225.106 167.145 224.128 166.626C222.629 165.83 221.405 164.784 220.998 162.993C220.923 162.662 220.434 162.37 220.075 162.168C218.997 161.559 217.912 160.963 216.827 160.366L216.825 160.365C215.024 159.374 213.224 158.384 211.454 157.342C209.245 156.042 207.094 154.644 204.944 153.246L204.296 152.825C200.905 150.623 197.527 148.402 194.149 146.18C193.489 145.746 192.829 145.312 192.168 144.878C191.427 144.391 190.691 143.896 189.954 143.401C189.441 143.056 188.928 142.711 188.414 142.369C188.208 142.232 187.99 142.109 187.767 142.003C187.101 141.688 186.905 141.802 186.852 142.516C186.85 142.531 186.851 142.546 186.851 142.56L186.851 142.566C186.851 142.576 186.851 142.586 186.851 142.596L186.809 145.603C186.77 148.365 186.731 151.127 186.691 153.888C186.678 154.77 187.139 155.446 187.595 156.112C187.651 156.194 187.707 156.276 187.762 156.358C187.797 156.411 187.832 156.464 187.867 156.518C189.472 159.004 191.111 161.47 192.766 163.924C193.22 164.597 193.691 165.26 194.161 165.922L194.162 165.923L194.162 165.924C194.872 166.923 195.582 167.922 196.235 168.958C196.565 169.483 196.763 170.092 196.961 170.702L196.961 170.702C197.048 170.97 197.134 171.237 197.233 171.497L197.257 171.561L197.272 171.602L197.299 171.67C197.323 171.731 197.347 171.792 197.372 171.853C197.499 172.171 197.626 172.49 197.706 172.82C198.35 175.488 198.06 178.135 197.423 180.753C197.38 180.928 197.337 181.104 197.295 181.279C196.899 182.915 196.502 184.558 195.924 186.13C195.461 187.391 194.883 188.609 194.305 189.828L194.305 189.828C194.026 190.415 193.748 191.002 193.482 191.594C193.018 192.628 192.569 193.668 192.126 194.711C191.374 196.479 190.627 198.248 189.888 200.021C189.619 200.665 189.36 201.313 189.101 201.96C188.581 203.257 188.062 204.554 187.472 205.817C186.622 207.636 185.677 209.412 184.733 211.187L184.732 211.189L184.731 211.191C184.596 211.444 184.461 211.698 184.327 211.951C183.737 213.063 183.133 214.166 182.528 215.27C181.943 216.338 181.358 217.407 180.786 218.482C180.265 219.463 179.758 220.45 179.251 221.438L179.25 221.439L179.249 221.442C178.707 222.497 178.165 223.553 177.606 224.6C176.811 226.087 175.978 227.555 175.121 229.008C174.407 230.216 174.614 230.779 175.439 231.893C176.334 233.099 177.725 233.503 179.105 233.818C182.888 234.682 186.679 235.511 190.47 236.34L190.663 236.382C191.045 236.465 191.431 236.528 191.818 236.59L191.818 236.59C192.253 236.66 192.688 236.73 193.115 236.83C195.251 237.33 196.323 238.901 196.894 240.85C197.26 242.097 197.367 243.436 196.374 244.472C195.999 244.863 195.314 245.154 194.769 245.156C187.746 245.18 180.722 245.184 173.699 245.188C169.275 245.19 164.852 245.193 160.429 245.2C159.914 245.201 159.876 245.046 159.837 244.593C159.798 244.131 159.715 243.671 159.634 243.211C159.513 242.536 159.393 241.863 159.408 241.191C159.479 237.962 160.611 235.07 162.59 232.531C162.733 232.348 162.965 232.226 163.194 232.107C163.448 231.973 163.699 231.842 163.818 231.631C164.395 230.61 164.89 229.524 165.27 228.413C165.877 226.634 166.481 224.839 166.871 223.004C167.05 222.161 167.309 221.344 167.568 220.526C167.889 219.51 168.212 218.493 168.382 217.423C168.562 216.293 169.031 215.205 169.498 214.124C169.643 213.788 169.787 213.453 169.923 213.118C170.384 211.975 170.861 210.838 171.338 209.702L171.338 209.701L171.339 209.7L171.339 209.699L171.339 209.699L171.34 209.698L171.34 209.697L171.34 209.697L171.34 209.696L171.34 209.696L171.341 209.696L171.341 209.695L171.341 209.695L171.341 209.695L171.341 209.694C172.083 207.926 172.824 206.158 173.509 204.368C173.997 203.093 174.401 201.785 174.806 200.477L174.806 200.477L174.806 200.477L174.806 200.477L174.806 200.476L174.806 200.476L174.806 200.476L174.807 200.476C175.038 199.729 175.269 198.982 175.515 198.241C176.037 196.673 176.567 195.106 177.165 193.566C177.299 193.22 177.224 193.214 177.035 193.199C177 193.196 176.961 193.193 176.919 193.188C174.397 192.853 171.912 192.882 169.56 194.005C169.045 194.251 168.682 194.199 168.341 193.771C167.992 193.334 168.174 193.015 168.482 192.613C170.32 190.219 171.462 187.493 172.338 184.616C172.43 184.315 172.524 184.015 172.618 183.714L172.618 183.713L172.618 183.713C173.187 181.901 173.755 180.094 173.739 178.167C173.727 176.708 173.368 175.399 172.365 174.178C172.144 173.91 171.942 173.629 171.74 173.349C171.138 172.514 170.544 171.69 169.512 171.259C168.989 171.041 168.473 170.806 167.957 170.571C167.42 170.326 166.883 170.081 166.339 169.856C166.106 169.759 165.874 169.663 165.642 169.566L165.097 169.338C163.467 168.656 161.837 167.974 160.174 167.385C159.165 167.027 158.119 166.771 157.074 166.515L157.074 166.515L157.074 166.515L157.074 166.515L157.073 166.515L157.073 166.515L157.073 166.515L157.073 166.515L157.072 166.515L157.072 166.515L157.072 166.515L157.072 166.515L157.071 166.515L157.071 166.515L157.071 166.515C156.596 166.398 156.121 166.282 155.65 166.156C155.557 166.131 155.465 166.102 155.374 166.073L155.292 166.047C155.265 166.038 155.237 166.03 155.21 166.022L155.18 166.013L155.153 166.005C154.079 165.698 153.14 165.752 152.41 166.789C152.09 167.243 151.65 167.614 151.189 168.002L151.189 168.002L151.045 168.124C151.001 168.161 150.957 168.199 150.913 168.237C149.177 169.949 147.518 171.659 145.865 173.375ZM185.466 143.173L185.466 143.172L185.466 143.172C185.559 142.709 185.651 142.246 185.702 141.778L185.716 141.647L185.716 141.647C185.824 140.644 185.934 139.627 185.862 138.629C185.825 138.112 185.688 137.605 185.55 137.096L185.55 137.095C185.438 136.683 185.326 136.27 185.268 135.851C184.959 133.648 184.681 131.439 184.467 129.225C184.281 127.3 184.157 125.369 184.033 123.438L184.032 123.438L184.014 123.152L183.98 122.626C183.855 120.699 183.739 118.77 183.663 116.84C183.591 114.991 183.555 113.14 183.52 111.289V111.288L183.504 110.508C183.502 110.392 183.542 110.275 183.582 110.157L183.582 110.157L183.582 110.157L183.582 110.157C183.607 110.082 183.633 110.007 183.648 109.931C183.665 109.846 183.685 109.76 183.706 109.674C183.763 109.435 183.82 109.195 183.799 108.964C183.776 108.709 183.718 108.455 183.661 108.202L183.661 108.202C183.583 107.858 183.506 107.516 183.515 107.175C183.572 104.913 183.674 102.652 183.776 100.391L183.805 99.7513L183.821 99.3891C183.843 98.9032 183.905 98.4172 183.979 97.936C184.188 96.5789 184.405 95.223 184.622 93.8671L184.776 92.9084C184.793 92.7978 184.817 92.6883 184.841 92.5787C184.852 92.528 184.863 92.4772 184.873 92.4263C184.876 92.4504 184.879 92.4745 184.882 92.4986L184.89 92.5563L184.896 92.5961C184.913 92.7175 184.93 92.839 184.932 92.9608C184.983 95.5039 185.03 98.0471 185.077 100.59L185.094 101.532C185.11 102.384 185.126 103.235 185.143 104.087C185.182 106.119 185.221 108.151 185.252 110.184C185.274 111.529 185.29 112.873 185.307 114.218C185.337 116.664 185.367 119.109 185.425 121.554C185.468 123.378 185.584 125.202 185.746 127.019C185.864 128.352 186.037 129.68 186.21 131.008L186.211 131.008L186.211 131.008L186.211 131.01L186.211 131.011C186.266 131.432 186.321 131.853 186.374 132.274C186.448 132.862 186.529 133.449 186.61 134.036L186.61 134.04L186.611 134.04L186.611 134.041L186.611 134.042L186.611 134.043L186.611 134.044L186.611 134.044L186.611 134.045C186.753 135.072 186.894 136.098 187 137.129C187.135 138.44 187.766 139.502 188.674 140.343C189.337 140.957 190.084 141.479 190.831 142.002C191.126 142.208 191.421 142.415 191.711 142.627C192.315 143.068 192.916 143.514 193.518 143.96L193.519 143.961L193.522 143.963C195.035 145.084 196.547 146.205 198.102 147.264C199.49 148.211 200.92 149.098 202.349 149.984L202.349 149.985L202.35 149.985L202.35 149.985L202.351 149.985L202.351 149.986L202.351 149.986C203.043 150.415 203.735 150.844 204.422 151.28C205.082 151.699 205.739 152.122 206.397 152.545L206.4 152.546L206.401 152.547C207.57 153.299 208.739 154.051 209.923 154.78L210.146 154.918C212.317 156.255 214.489 157.592 216.71 158.839C217.767 159.432 218.886 159.913 220.004 160.393C220.291 160.516 220.578 160.639 220.863 160.764C221.029 160.837 221.411 160.753 221.489 160.621C221.676 160.308 221.796 159.955 221.916 159.603L221.917 159.603C221.941 159.533 221.964 159.463 221.989 159.393C222.456 158.061 223.047 156.816 224.055 155.779C224.816 154.995 224.709 154.76 223.652 154.315C223.595 154.291 223.537 154.267 223.479 154.242L223.474 154.241L223.474 154.241C223.033 154.056 222.587 153.87 222.186 153.617C221.441 153.147 220.716 152.637 220.02 152.096C219.402 151.616 218.782 151.137 218.162 150.659L218.162 150.659L218.162 150.659L218.161 150.658L218.161 150.658L218.161 150.658L218.161 150.658L218.16 150.657C216.071 149.045 213.982 147.432 211.95 145.749C210.058 144.182 208.26 142.493 206.499 140.778C206.255 140.539 206.007 140.303 205.76 140.066L205.759 140.065L205.759 140.065C204.26 138.633 202.756 137.195 201.806 135.294C201.675 135.034 201.525 134.783 201.374 134.532C200.937 133.804 200.5 133.076 200.564 132.119C200.604 131.534 200.525 130.94 200.447 130.347L200.447 130.347C200.419 130.133 200.391 129.918 200.368 129.704C200.307 129.13 200.235 128.556 200.162 127.982L200.162 127.98L200.162 127.979L200.162 127.977L200.161 127.976L200.161 127.974L200.161 127.973L200.161 127.971L200.161 127.971C200.012 126.79 199.863 125.61 199.813 124.426C199.745 122.826 199.76 121.223 199.776 119.62V119.619C199.782 118.929 199.789 118.238 199.789 117.548C199.789 117.386 199.784 117.224 199.78 117.061V117.061C199.769 116.706 199.759 116.352 199.798 116.002C199.988 114.302 200.181 112.601 200.437 110.909C200.487 110.579 200.536 110.248 200.584 109.917C200.823 108.297 201.062 106.674 201.456 105.091C201.8 103.712 202.222 102.353 202.644 100.994L202.645 100.994L202.645 100.993L202.645 100.993L202.645 100.993L202.645 100.992L202.645 100.992L202.645 100.992C202.979 99.9158 203.314 98.8397 203.609 97.7533C203.822 96.9718 204.056 96.1959 204.29 95.4198C204.876 93.4773 205.463 91.5342 205.712 89.5023C205.766 89.0594 205.878 88.6183 205.99 88.1787C206.154 87.5319 206.318 86.8886 206.295 86.2482C206.213 83.9345 205.568 81.705 204.919 79.4794C203.95 76.1547 202.269 73.3817 199.36 71.4081C197.682 70.2693 195.923 69.4355 193.841 69.7034C193.086 69.8006 192.338 69.9564 191.591 70.1122L191.59 70.1122C191.231 70.1872 190.871 70.2621 190.511 70.3305C188.465 70.7188 186.654 71.6219 185.023 72.8913C184.069 73.6344 183.137 74.4096 182.23 75.2108C181.324 76.0119 180.418 76.8221 179.592 77.7039C178.824 78.5239 178.11 79.395 177.396 80.2653C177.241 80.4547 177.085 80.6441 176.929 80.8329C175.702 82.3193 174.479 83.8089 173.278 85.317C172.753 85.977 172.238 86.6458 171.723 87.3146L171.723 87.3148L171.723 87.315L171.723 87.3152L171.723 87.3154L171.723 87.3156L171.722 87.3158L171.722 87.3161L171.722 87.3162C170.944 88.3276 170.165 89.3389 169.35 90.3198C167.872 92.0988 166.338 93.8328 164.781 95.5436C162.642 97.8945 160.465 100.211 158.288 102.527C158.102 102.725 157.889 102.897 157.675 103.069L157.675 103.069C157.42 103.275 157.164 103.481 156.959 103.729C155.383 105.632 153.899 107.616 152.845 109.857C151.874 111.924 150.938 114.007 150.002 116.09L150.002 116.09C149.16 117.962 148.319 119.835 147.452 121.695C146.047 124.71 144.5 127.648 142.633 130.42L142.496 130.624L142.496 130.624C141.496 132.111 140.496 133.599 139.086 134.683C137.249 136.095 135.337 137.41 133.425 138.725L133.425 138.725L133.425 138.725L133.425 138.725L133.425 138.725L133.425 138.725L133.425 138.725L133.425 138.725L133.421 138.728L133.42 138.728L133.42 138.729L133.419 138.729L133.418 138.73L133.417 138.73C132.921 139.072 132.424 139.413 131.929 139.756C130.317 140.874 129.04 142.284 128.413 144.141C127.642 146.422 128.036 148.687 129.112 150.766C130.436 153.324 132.532 155.28 134.671 157.144C137.045 159.212 139.804 160.695 142.781 161.648C146.608 162.874 150.456 164.063 154.503 164.411C155.561 164.501 156.615 164.64 157.67 164.779C158.845 164.934 160.021 165.088 161.202 165.176C163.813 165.371 166.435 165.48 169.053 165.494C170.231 165.5 171.408 165.419 172.587 165.337L172.587 165.337C173.334 165.285 174.082 165.233 174.83 165.204C176.864 165.124 178.79 164.589 180.688 163.915C181.963 163.461 183.143 162.838 183.609 161.461C183.88 160.659 184.015 159.801 184.126 158.958L184.155 158.74C184.39 156.959 184.626 155.175 184.76 153.384C184.883 151.735 184.948 150.082 185.014 148.367L185.014 148.366L185.015 148.365C185.04 147.719 185.065 147.065 185.094 146.4C185.111 146.186 185.124 145.971 185.137 145.756L185.137 145.756C185.167 145.272 185.196 144.788 185.263 144.309C185.315 143.928 185.391 143.55 185.466 143.173ZM117.62 192.87C117.705 192.947 117.9 192.997 117.995 192.953C118.432 192.754 118.876 192.567 119.321 192.38C120.404 191.922 121.488 191.465 122.465 190.839C124.208 189.723 125.908 188.54 127.609 187.358L127.61 187.357C128.944 186.429 130.279 185.501 131.634 184.605C134.59 182.65 137.182 180.269 139.774 177.888C140.279 177.424 140.784 176.96 141.291 176.5C142.079 175.784 142.821 175.017 143.561 174.25L143.562 174.25L143.563 174.249L143.563 174.248L143.564 174.248L143.564 174.247C143.671 174.137 143.777 174.027 143.884 173.917L144.043 173.753C144.925 172.846 145.799 171.93 146.672 171.015C147.051 170.618 147.43 170.222 147.809 169.826C148.081 169.541 148.354 169.258 148.628 168.974C149.618 167.944 150.609 166.914 151.569 165.856C151.683 165.731 151.541 165.109 151.411 165.069C150.867 164.905 150.313 164.77 149.759 164.635L149.759 164.635L149.758 164.635L149.758 164.635L149.758 164.635L149.758 164.635L149.758 164.635L149.758 164.635L149.758 164.635C149.055 164.464 148.353 164.294 147.671 164.061L147.324 163.943C144.503 162.983 141.678 162.021 138.917 160.904C136.388 159.881 134.046 158.477 131.952 156.695C131.919 156.667 131.769 156.704 131.753 156.743C131.148 158.204 130.023 159.2 128.893 160.199L128.893 160.199L128.892 160.199L128.892 160.2L128.891 160.2L128.891 160.201L128.891 160.201L128.89 160.201C128.634 160.428 128.377 160.655 128.126 160.888C126.94 161.989 125.764 163.117 124.725 164.353C124.053 165.151 123.482 166.035 122.911 166.917L122.911 166.918C122.701 167.242 122.491 167.566 122.276 167.886C122.033 168.248 121.777 168.604 121.521 168.96L121.521 168.961C120.892 169.834 120.262 170.709 119.831 171.671C118.87 173.819 117.379 175.53 115.823 177.198C114.293 178.837 112.209 179.447 110.15 180.049C109.959 180.106 109.767 180.162 109.577 180.218C108.821 180.444 108.042 180.595 107.264 180.746C106.837 180.829 106.41 180.912 105.987 181.007C105.88 181.031 105.783 181.104 105.686 181.176C105.642 181.209 105.597 181.243 105.551 181.272C105.601 181.331 105.652 181.408 105.702 181.484C105.812 181.65 105.922 181.815 106.019 181.808C107.013 181.737 107.755 182.248 108.485 182.75C108.68 182.884 108.873 183.017 109.07 183.139C110.032 183.731 110.977 184.369 111.538 185.471C111.901 186.187 112.39 186.84 112.877 187.491C113.027 187.691 113.176 187.89 113.322 188.091C113.921 188.919 114.547 189.726 115.229 190.605L115.229 190.607L115.23 190.607L115.374 190.793L115.597 191L115.884 191.268C116.46 191.805 117.036 192.343 117.62 192.87ZM166.685 168.082C167.293 168.405 167.941 168.652 168.589 168.899C169.866 169.385 171.144 169.871 172.119 170.948C172.415 171.274 172.756 171.56 173.097 171.845L173.097 171.845L173.097 171.846L173.097 171.846L173.098 171.846L173.098 171.846L173.098 171.846L173.098 171.846C173.319 172.031 173.541 172.217 173.751 172.414C174.445 173.067 174.685 173.94 174.924 174.809C174.959 174.936 174.994 175.062 175.03 175.187C175.686 177.47 175.537 179.832 174.961 182.02L174.85 182.445L174.85 182.445C174.083 185.37 173.304 188.337 171.675 190.962C171.486 191.266 171.387 191.429 171.907 191.444C173.304 191.484 174.701 191.536 176.098 191.589H176.099H176.099H176.099H176.099H176.099H176.1H176.1C177.639 191.646 179.178 191.704 180.717 191.745C181.682 191.771 182.648 191.765 183.615 191.759H183.616C184.282 191.754 184.948 191.75 185.614 191.756C187.359 191.773 189.053 191.521 190.641 190.781C190.704 190.751 190.769 190.721 190.835 190.691L190.835 190.691C191.378 190.443 191.992 190.163 192.236 189.718C192.86 188.584 193.302 187.335 193.705 186.096C194.294 184.283 194.878 182.459 195.288 180.6C195.639 179.013 195.816 177.376 195.926 175.752C195.959 175.263 195.876 174.768 195.793 174.272C195.727 173.877 195.66 173.482 195.652 173.087C195.619 171.541 194.886 170.281 194.153 169.021L194.025 168.8C193.854 168.505 193.635 168.239 193.416 167.973L193.416 167.972C193.245 167.764 193.074 167.556 192.925 167.334C191.753 165.581 190.585 163.824 189.418 162.068L189.416 162.064L189.413 162.06L189.411 162.057L189.409 162.053L189.406 162.05C188.578 160.803 187.75 159.557 186.92 158.312C186.84 158.193 186.737 158.089 186.635 157.985L186.635 157.985C186.587 157.936 186.539 157.888 186.493 157.838C186.475 157.865 186.456 157.892 186.437 157.919C186.405 157.962 186.372 158.004 186.339 158.046C186.221 158.196 186.103 158.346 186.068 158.514C185.987 158.903 185.934 159.297 185.881 159.692C185.836 160.028 185.791 160.364 185.729 160.696C185.368 162.625 184.444 164.107 182.626 165.061C180.12 166.376 177.428 166.937 174.676 167.253C173.089 167.436 171.473 167.465 169.875 167.413C168.914 167.382 167.956 167.263 166.998 167.144L166.996 167.144C166.478 167.08 165.96 167.016 165.441 166.966C165.301 166.952 165.156 166.994 165.011 167.036C164.943 167.056 164.876 167.076 164.809 167.09C164.85 167.123 164.891 167.156 164.932 167.189C165.034 167.273 165.137 167.357 165.243 167.434C165.252 167.44 165.261 167.446 165.27 167.451C165.286 167.46 165.303 167.468 165.323 167.477C165.372 167.501 165.437 167.531 165.528 167.597C165.65 167.647 165.773 167.695 165.897 167.742C166.165 167.845 166.433 167.948 166.685 168.082ZM199.811 45.2677C198.798 46.749 198.187 48.4382 197.878 50.214C197.565 52.0184 197.521 53.8432 198.049 55.6045C198.362 56.6439 198.715 57.6712 199.068 58.6984L199.068 58.6986L199.068 58.7C199.477 59.8894 199.886 61.0787 200.231 62.2865C200.444 63.0323 200.927 63.3815 201.46 63.5692C203.976 64.4554 206.709 63.3778 208.271 61.0647C208.695 60.4368 208.451 60.1791 208.02 59.7401C207.436 59.146 206.926 58.4578 206.492 57.7443C205.843 56.6792 206.118 55.5934 206.86 54.7333C207.604 53.8726 208.719 53.6813 209.758 54.0419C210.944 54.454 211.798 55.3611 212.406 56.472C212.435 56.524 212.455 56.5805 212.476 56.637L212.485 56.6637L212.497 56.6948L212.505 56.7154C212.511 56.7012 212.519 56.6871 212.526 56.6731C212.541 56.643 212.556 56.6128 212.566 56.5811C212.656 56.3075 212.742 56.0322 212.829 55.7567L212.829 55.7565L212.829 55.7563L212.829 55.756L212.829 55.7557L212.829 55.7553L212.829 55.755C213.284 54.3066 213.74 52.8543 214.658 51.6186C215.375 50.6553 216.146 49.6947 217.055 48.9258C217.735 48.351 218.575 47.9511 219.398 47.5587L219.399 47.5584C219.519 47.5011 219.639 47.444 219.758 47.3865C220.038 47.251 220.319 47.1126 220.599 46.9741L220.601 46.9734C221.78 46.3911 222.964 45.8064 224.206 45.4173C224.414 45.3519 224.52 45.3197 224.569 45.3048C224.596 45.2963 224.606 45.2934 224.606 45.2931C224.606 45.293 224.603 45.2936 224.599 45.2945C224.534 45.3091 224.113 45.4028 228.218 43.9223C233.95 41.8552 231.001 35.3435 229.304 33.911C229.178 33.8044 228.977 33.6898 228.841 33.7192C228.719 33.7456 228.564 33.9584 228.551 34.1005C228.424 35.5239 226.338 37.7329 221.382 37.3899C217.99 37.1552 217.917 37.1687 217.755 37.1985C217.68 37.2123 217.586 37.2295 217.14 37.2274C216.071 37.2225 212.372 37.567 211.624 37.7784C211.352 37.8553 210.997 37.9295 210.579 38.0169C208.587 38.4332 205.169 39.1473 202.584 41.8552C202.298 42.2031 202.004 42.5455 201.709 42.8879C201.046 43.66 200.382 44.4321 199.811 45.2677ZM213.364 59.401C213.364 60.121 213.22 60.8294 213.076 61.5376L213.076 61.538C213.006 61.8784 212.937 62.2187 212.884 62.5603C212.875 62.6142 212.847 62.6651 212.819 62.7159C212.806 62.7396 212.793 62.7632 212.782 62.7871C212.776 62.764 212.77 62.741 212.763 62.7179C212.75 62.6688 212.737 62.6197 212.727 62.5699C212.662 62.2212 212.601 61.8714 212.54 61.5216L212.539 61.521C212.401 60.73 212.263 59.9391 212.074 59.1604C211.847 58.2266 211.595 57.275 211.177 56.4185C210.693 55.4281 208.666 54.9608 207.668 55.4803C207.1 55.7766 206.827 56.4867 207.196 57.0026C207.545 57.4906 207.973 57.9895 208.482 58.2799C209.318 58.7568 209.59 59.5521 209.657 60.3317C209.785 61.7976 208.247 63.859 206.752 64.2297C205.393 64.5667 204.008 64.8011 202.624 65.0353L202.624 65.0354L202.623 65.0355C202.297 65.0907 201.97 65.146 201.645 65.2026C201.611 65.2084 201.577 65.214 201.544 65.2194C201.109 65.2913 200.762 65.3486 200.9 65.9867C201.275 67.7191 201.397 69.4644 201.083 71.2265C201.064 71.3335 201.259 71.5014 201.382 71.6073C201.541 71.7426 201.707 71.8701 201.874 71.9975C202.18 72.2317 202.485 72.4656 202.738 72.7475C203.154 73.2107 203.541 73.6991 203.928 74.1876L203.929 74.188C204.195 74.5235 204.461 74.859 204.736 75.1865C204.808 75.2719 205.097 75.3076 205.167 75.2415C205.52 74.904 205.864 74.5569 206.208 74.2098L206.208 74.2096L206.208 74.2095L206.208 74.2093L206.208 74.2091L206.209 74.209L206.209 74.2088L206.209 74.2087C206.611 73.8026 207.014 73.3966 207.43 73.0061C208.439 72.0615 209.473 71.1429 210.52 70.2404C210.655 70.1235 210.842 70.0662 211.029 70.009C211.115 69.9825 211.201 69.9561 211.282 69.9238C211.248 70.002 211.215 70.0805 211.182 70.1591L211.182 70.1597C211.091 70.3744 211 70.589 210.893 70.7951C210.874 70.8311 210.821 70.8456 210.764 70.861C210.715 70.8741 210.665 70.8878 210.632 70.9161L210.602 70.942L210.581 70.9604C210.379 71.1324 210.231 71.2588 210.678 71.4721C211.152 71.6977 211.59 71.9967 212.029 72.2956L212.029 72.2958C212.212 72.4207 212.396 72.5456 212.581 72.6651C215.444 74.507 218.527 75.3718 221.941 74.8121C223.871 74.4956 225.196 73.4684 225.785 71.5684C226.349 69.7484 226.114 69.2188 224.375 68.4874C224.316 68.4625 224.257 68.4378 224.197 68.4131C223.28 68.0317 222.369 67.6528 222.129 66.5286C222.03 66.0664 222.885 65.568 223.074 66.0014C223.075 66.0042 223.076 66.0069 223.076 66.0096C223.262 66.8573 223.905 67.1502 224.584 67.4556C225.832 68.0174 225.984 67.9388 225.984 66.6578C225.984 64.9808 225.984 64.9808 227.455 64.4583C228.307 64.1557 228.444 63.8598 228.057 63.0321C227.472 61.7822 227.091 60.5088 227.252 59.0955C227.452 57.3539 227.618 55.6066 227.728 53.8573C227.798 52.7332 227.865 51.5829 227.705 50.4778C227.602 49.7701 227.349 49.0842 227.096 48.3985C226.988 48.1035 226.879 47.8085 226.782 47.5119C226.555 46.815 226.007 46.535 225.292 46.7927C224.846 46.9537 224.397 47.1089 223.947 47.2642L223.947 47.2643C222.695 47.6966 221.443 48.1292 220.25 48.687C218.994 49.2742 217.722 50.0025 216.745 50.9622C215.867 51.8245 213.364 56.168 213.364 59.401ZM110.198 195.114C110.728 194.996 111.258 194.878 111.788 194.761L111.793 194.76C112.944 194.505 114.094 194.25 115.243 193.985C115.408 193.947 115.563 193.862 115.717 193.776C115.789 193.737 115.86 193.697 115.933 193.662C115.897 193.641 115.861 193.62 115.825 193.6L115.748 193.556C115.603 193.476 115.459 193.395 115.327 193.298C115.181 193.191 115.057 193.05 114.936 192.913L114.93 192.906C114.585 192.515 114.235 192.128 113.885 191.741L113.885 191.741L113.885 191.741L113.885 191.741L113.885 191.741L113.885 191.741L113.885 191.741L113.885 191.741C113.033 190.799 112.18 189.856 111.402 188.857C110.632 187.868 110.02 186.746 109.416 185.64L109.401 185.613C109.104 185.068 108.766 184.838 108.194 185.037C105.761 185.887 103.242 186.351 100.723 186.815C99.4094 187.057 98.0955 187.299 96.7937 187.595C94.6601 188.082 83.9198 189.929 82.9845 189.996C82.5291 190.029 82.0736 190.075 81.6183 190.121C80.7331 190.211 79.8482 190.301 78.9642 190.291C76.705 190.266 74.4906 190.509 72.2779 190.939C71.5803 191.074 70.8727 191.16 70.1653 191.245C69.3575 191.343 68.55 191.441 67.7581 191.613C65.2078 192.165 64.3534 194.343 65.0104 196.47C65.1366 196.879 65.5873 197.34 65.9918 197.483C67.8367 198.136 69.7679 198.305 71.7199 198.32C72.725 198.328 73.7298 198.375 74.7346 198.421L74.7356 198.421H74.7357H74.7359H74.7361H74.7363H74.7365H74.7367H74.7369C75.12 198.439 75.5032 198.457 75.8864 198.473C77.3294 198.532 78.7723 198.592 80.2153 198.652C81.337 198.698 82.4587 198.745 83.5804 198.791C83.6601 198.795 83.7399 198.793 83.8198 198.792C83.8998 198.791 83.9797 198.79 84.0595 198.793C84.4534 198.809 84.8479 198.836 85.2424 198.863C86.1056 198.922 86.9688 198.981 87.8251 198.928C89.1684 198.845 90.5069 198.686 91.8455 198.527C92.4672 198.453 93.089 198.38 93.7113 198.314C94.0927 198.273 94.4751 198.24 94.8574 198.207H94.8577C95.5512 198.147 96.2446 198.087 96.9314 197.982L97.2776 197.93L97.278 197.93C99.0327 197.663 100.791 197.397 102.522 197.015C103.866 196.718 105.201 196.379 106.566 196.032L106.566 196.032L106.567 196.032L106.568 196.032L106.569 196.031L106.57 196.031L106.572 196.03C107.569 195.777 108.581 195.52 109.624 195.273C109.655 195.264 109.686 195.255 109.717 195.246L109.805 195.22C109.935 195.182 110.065 195.144 110.198 195.114ZM171.061 232.105C171.888 230.918 172.67 229.698 173.428 228.466C174.117 227.346 174.761 226.198 175.405 225.051C175.982 224.023 176.58 223.009 177.178 221.994C178.567 219.639 179.956 217.285 181.071 214.772C181.713 213.325 182.457 211.923 183.201 210.521C183.555 209.853 183.91 209.184 184.254 208.511C184.416 208.194 184.581 207.878 184.746 207.561C185.198 206.695 185.651 205.829 186.039 204.935C186.333 204.259 186.591 203.565 186.848 202.872C187.244 201.807 187.639 200.742 188.164 199.745C189.008 198.144 189.567 196.453 190.127 194.76L190.127 194.76L190.127 194.76L190.127 194.76L190.128 194.759L190.128 194.759L190.128 194.759L190.128 194.759C190.31 194.209 190.492 193.659 190.683 193.113C190.713 193.028 190.732 192.939 190.751 192.85C190.756 192.827 190.761 192.803 190.766 192.779C190.77 192.762 190.774 192.744 190.779 192.727C190.733 192.736 190.688 192.744 190.642 192.751C190.542 192.768 190.443 192.785 190.347 192.814C190.154 192.871 189.963 192.941 189.772 193.01C189.375 193.155 188.979 193.299 188.573 193.331C187.057 193.45 185.533 193.502 184.012 193.501C183.071 193.501 182.13 193.464 181.189 193.427C180.582 193.403 179.976 193.379 179.369 193.365C179.256 193.362 179.079 193.504 179.034 193.618C178.979 193.759 178.923 193.899 178.867 194.039L178.867 194.041C178.487 194.999 178.107 195.958 177.775 196.933C176.948 199.362 176.146 201.801 175.354 204.242C174.348 207.341 173.11 210.332 171.745 213.3C170.481 216.052 169.538 218.982 168.939 221.998C168.66 223.406 168.246 224.788 167.833 226.168C167.733 226.501 167.634 226.834 167.536 227.167C167.23 228.212 166.892 229.247 166.554 230.282L166.553 230.285L166.552 230.289L166.55 230.292C166.429 230.662 166.308 231.033 166.189 231.404C165.913 232.262 166.156 233.062 166.83 233.166C167.581 233.283 168.357 233.24 169.202 233.187C169.969 233.081 170.628 232.728 171.061 232.105ZM60.6535 202.623C61.4873 201.252 62.3462 200.01 64.0412 199.64C64.6704 199.502 64.7052 199.174 64.2882 198.647C64.1967 198.532 64.1001 198.417 64.003 198.301C63.6546 197.886 63.2994 197.462 63.1491 196.981C62.9865 196.461 63.0182 195.873 63.0494 195.296C63.0574 195.147 63.0654 194.999 63.07 194.853C63.1252 193.109 63.6179 191.62 65.3454 190.772C65.8579 190.521 66.1657 190.142 65.6516 189.4C64.4931 187.729 62.9577 186.546 61.2648 185.521C60.6013 185.12 59.9903 185.359 59.7265 186.06C59.6122 186.364 59.4966 186.667 59.381 186.97L59.3798 186.973L59.3797 186.974C59.0131 187.936 58.6465 188.898 58.3214 189.874C57.9644 190.946 57.6247 192.024 57.2851 193.102L57.2849 193.102L57.2849 193.102C56.9264 194.24 56.568 195.377 56.1892 196.508C55.8762 197.441 55.6008 198.386 55.3252 199.331C54.8274 201.038 54.3292 202.745 53.6091 204.394C51.951 208.189 50.6108 212.113 49.9766 216.237C49.9431 216.455 49.9898 216.829 50.1188 216.895C50.315 216.995 50.6501 216.958 50.8647 216.854C51.2225 216.679 51.5984 216.46 51.8489 216.161C52.6352 215.222 53.3666 214.237 54.1193 213.11C54.7426 212.113 55.3683 211.117 55.9939 210.121L55.994 210.121C57.5595 207.629 59.125 205.137 60.6535 202.623ZM178.025 234.949C177.874 234.911 177.722 234.874 177.571 234.837C176.182 234.499 174.802 234.163 173.998 232.728C173.618 232.051 173.286 232.102 172.903 232.846C172.571 233.491 172.159 234.057 171.504 234.393C171.155 234.572 170.785 234.717 170.415 234.848C168.576 235.5 166.787 235.582 165.175 234.264C164.389 233.622 164.133 233.681 163.52 234.48C162.528 235.773 162.02 237.281 161.514 238.783L161.47 238.911C160.925 240.528 161.221 240.866 162.94 240.866H193.763C193.785 240.866 193.808 240.867 193.831 240.868C193.848 240.869 193.865 240.87 193.882 240.871C193.908 240.873 193.935 240.875 193.962 240.877C194.116 240.891 194.271 240.904 194.393 240.847C194.551 240.774 194.762 240.429 194.736 240.4C194.623 240.276 194.512 240.145 194.401 240.013C194.062 239.61 193.718 239.203 193.282 238.981C192.413 238.54 191.438 238.279 190.484 238.037C186.962 237.146 183.431 236.294 179.744 235.427L179.652 235.401L179.562 235.376L179.508 235.36C179.407 235.332 179.307 235.303 179.206 235.274C178.814 235.162 178.421 235.05 178.025 234.949ZM238.304 175.722C238.34 175.857 238.502 175.958 238.663 176.06C238.738 176.106 238.812 176.153 238.874 176.203C238.915 176.146 238.965 176.089 239.016 176.032C239.126 175.909 239.236 175.785 239.242 175.657C239.247 175.551 239.253 175.445 239.26 175.339L239.266 175.254L239.273 175.14L239.273 175.139L239.273 175.139C239.318 174.465 239.364 173.784 239.23 173.143C238.97 171.891 238.561 170.659 238.096 169.464C237.98 169.166 238.119 169.024 238.249 168.89C238.343 168.793 238.433 168.701 238.419 168.557C238.502 168.61 238.592 168.659 238.681 168.708C238.885 168.82 239.089 168.932 239.223 169.1C239.342 169.248 239.396 169.445 239.451 169.644C239.484 169.762 239.517 169.881 239.564 169.991C239.629 170.144 239.694 170.298 239.759 170.452L239.76 170.454C240.078 171.207 240.396 171.96 240.764 172.688C240.829 172.817 241.025 172.88 241.221 172.943C241.312 172.971 241.402 173 241.48 173.036C241.513 172.962 241.555 172.889 241.597 172.815C241.689 172.655 241.782 172.494 241.78 172.334C241.773 171.61 241.716 170.883 241.63 170.163C241.616 170.05 241.604 169.935 241.592 169.82C241.538 169.301 241.482 168.772 241.282 168.312C240.672 166.912 240.025 165.517 239.247 164.206C238.755 163.377 238.086 162.601 237.344 161.986C236.684 161.44 235.925 161.012 235.168 160.586L235.168 160.586L235.075 160.534C234.998 160.49 234.921 160.447 234.844 160.403C234.75 160.35 234.657 160.296 234.564 160.243C233.344 159.535 232.107 158.856 230.868 158.183C230.854 158.176 230.841 158.168 230.827 158.16C230.682 158.078 230.511 157.98 230.358 158.313C230.072 158.94 229.767 159.559 229.463 160.178C228.988 161.145 228.513 162.111 228.105 163.105L228.094 163.132L228.078 163.172C227.918 163.552 227.635 164.222 228.5 164.593C229.428 164.99 230.341 165.562 231.073 166.256C233.227 168.296 234.198 171.024 235.163 173.732L235.239 173.944C235.425 174.465 235.558 175.006 235.691 175.546L235.691 175.546C235.754 175.803 235.817 176.059 235.886 176.313C235.911 176.406 235.941 176.497 235.97 176.589L235.971 176.59C235.984 176.632 235.998 176.673 236.011 176.715C236.056 176.682 236.108 176.652 236.161 176.622C236.275 176.557 236.388 176.493 236.428 176.397C236.835 175.42 236.957 174.438 236.654 173.376C236.413 172.532 236.326 171.639 236.24 170.76V170.76L236.24 170.759L236.233 170.679C236.222 170.572 236.372 170.449 236.522 170.325C236.591 170.269 236.66 170.212 236.714 170.156C236.75 170.204 236.792 170.25 236.833 170.296C236.924 170.395 237.015 170.495 237.047 170.611C237.116 170.858 237.18 171.106 237.244 171.358C237.362 171.818 237.484 172.291 237.644 172.796C237.7 173.051 237.754 173.307 237.808 173.563C237.96 174.286 238.112 175.009 238.304 175.722ZM228.481 159.404C228.595 159.128 228.732 158.863 228.87 158.597C229.202 157.955 229.534 157.312 229.552 156.502C229.569 155.761 229.435 155.364 228.837 154.999C228.204 154.613 227.483 154.38 226.92 154.824C225.64 155.834 224.458 157.006 223.774 158.508C223.343 159.454 223.032 160.455 222.722 161.456C222.615 161.799 222.509 162.142 222.398 162.482C222.334 162.676 222.364 162.918 222.406 163.127C222.653 164.376 223.585 164.993 224.622 165.517C225.17 165.793 225.574 165.656 225.82 165.115C225.988 164.746 226.154 164.375 226.321 164.001L226.321 164.001C226.67 163.221 227.026 162.427 227.422 161.598C227.531 161.373 227.644 161.151 227.756 160.928L227.757 160.927C228.011 160.425 228.265 159.923 228.481 159.404ZM48.2215 215.8C48.7929 214.439 49.3356 213.06 49.7933 211.657C50.0994 210.719 50.3693 209.769 50.6392 208.819L50.6393 208.819C50.8838 207.958 51.1282 207.098 51.3995 206.246C51.8254 204.909 52.2721 203.579 52.7188 202.249C53.1362 201.006 53.5537 199.763 53.9542 198.514C54.704 196.177 55.4354 193.833 56.1667 191.489L56.1668 191.489C56.4954 190.436 56.824 189.383 57.1543 188.33C57.2412 188.053 57.3295 187.777 57.4177 187.5L57.4179 187.499L57.418 187.499C57.6525 186.764 57.887 186.028 58.0972 185.286C58.1284 185.176 58.065 185.039 58.0015 184.902L58.0014 184.902C57.9721 184.838 57.9428 184.775 57.9228 184.714C57.8579 184.757 57.7827 184.795 57.7076 184.834C57.5451 184.916 57.3827 184.999 57.3233 185.129C56.761 186.36 56.2114 187.599 55.7261 188.862C55.2794 190.024 54.8806 191.205 54.482 192.386L54.482 192.386C54.4153 192.584 54.3486 192.781 54.2817 192.979C54.2075 193.198 54.1331 193.416 54.0587 193.635C53.6402 194.865 53.2217 196.096 52.8491 197.34C52.4635 198.628 52.098 199.922 51.7325 201.216C51.4649 202.163 51.1973 203.111 50.9217 204.056C50.8208 204.402 50.7209 204.748 50.6209 205.094L50.6209 205.094L50.6208 205.095L50.6207 205.095L50.6206 205.095L50.6206 205.096L50.6205 205.096L50.6201 205.097L50.62 205.098C50.1988 206.557 49.7774 208.017 49.2867 209.453C48.981 210.348 48.6578 211.236 48.3334 212.128L48.3334 212.128L48.3333 212.128C47.8803 213.374 47.425 214.625 47.0115 215.91C47.6111 216.701 47.8404 216.708 48.2215 215.8ZM183.657 243.825C184.02 243.8 184.383 243.774 184.746 243.747C185.546 243.688 186.347 243.628 187.148 243.589C188.206 243.538 189.264 243.492 190.322 243.445C191.72 243.384 193.118 243.323 194.515 243.25C194.625 243.244 194.73 243.134 194.835 243.024C194.883 242.973 194.932 242.922 194.981 242.882C194.939 242.856 194.898 242.828 194.856 242.8C194.76 242.735 194.664 242.67 194.558 242.634C194.475 242.606 194.381 242.613 194.286 242.619C194.245 242.623 194.203 242.626 194.162 242.626H162.406C162.357 242.626 162.302 242.619 162.247 242.613C162.126 242.599 162.005 242.585 161.938 242.639C161.71 242.822 161.506 243.057 161.368 243.312C161.339 243.366 161.614 243.69 161.785 243.728C162.257 243.833 162.748 243.898 163.231 243.899C170.013 243.909 176.795 243.905 183.657 243.825ZM229.418 246.293L229.416 246.294C226.986 247.25 224.571 248.2 222.187 249.225C220.559 249.925 218.928 250.033 217.232 249.983C217.088 249.978 216.945 249.946 216.801 249.914L216.801 249.914C216.647 249.879 216.494 249.844 216.34 249.844C216.215 249.844 216.091 249.913 215.967 249.982C215.931 250.001 215.895 250.021 215.859 250.04C215.848 250.045 215.838 250.05 215.827 250.055C215.818 250.059 215.809 250.064 215.8 250.068C215.829 250.113 215.855 250.162 215.882 250.21L215.882 250.21C215.941 250.318 215.999 250.425 216.086 250.502C216.33 250.722 216.586 250.946 216.875 251.097C219.072 252.248 220.342 255.39 219.566 257.748C219.185 258.905 218.723 260.134 217.951 261.035C217.323 261.768 216.228 262.251 215.251 262.505C213.709 262.906 212.099 262.918 210.543 262.354C209.183 261.861 208.207 260.948 207.487 259.715C205.738 256.717 206.456 254.117 208.317 251.697C208.561 251.38 208.955 251.18 209.352 250.978C209.574 250.865 209.797 250.752 209.995 250.617C210.136 250.522 210.245 250.38 210.354 250.238C210.404 250.174 210.453 250.109 210.506 250.049C210.419 250.027 210.331 250.001 210.244 249.976C210.044 249.917 209.843 249.858 209.641 249.849C209.501 249.843 209.361 249.879 209.22 249.915L209.22 249.915C209.088 249.949 208.957 249.983 208.826 249.983L203.873 249.986C192.664 249.993 181.454 249.999 170.245 249.982C167.537 249.977 164.83 249.937 162.122 249.897C160.529 249.873 158.936 249.849 157.343 249.833C156.166 249.821 154.988 249.824 153.811 249.827L153.172 249.828C152.849 249.829 152.526 249.83 152.203 249.83C152.088 249.83 151.973 249.829 151.857 249.828C151.537 249.827 151.218 249.825 150.898 249.837C150.832 249.84 150.767 249.885 150.702 249.93L150.68 249.946C150.671 249.951 150.663 249.957 150.654 249.963L150.645 249.969L150.632 249.977L150.624 249.982L150.612 249.989C150.64 250.009 150.669 250.03 150.698 250.051C150.759 250.096 150.82 250.141 150.885 250.181C151.153 250.348 151.435 250.501 151.716 250.655L151.717 250.656C152.322 250.986 152.927 251.317 153.402 251.78C156.652 254.952 155.604 261.221 150.742 262.477C146.808 263.493 143.332 262.185 142.164 257.513C141.444 254.633 143.369 251.199 146.28 250.299C146.406 250.26 146.515 250.165 146.624 250.071C146.65 250.048 146.676 250.025 146.703 250.002C146.716 249.991 146.73 249.98 146.744 249.969C146.751 249.963 146.758 249.958 146.765 249.952L146.777 249.944C146.732 249.919 146.688 249.89 146.643 249.859L146.617 249.841C146.502 249.762 146.387 249.682 146.272 249.682C142.434 249.667 138.837 248.551 135.309 247.216C130.57 245.424 125.963 243.334 121.698 240.575L121.616 240.522C120.828 240.014 120.015 239.489 119.737 238.425C119.216 236.433 120.223 234.897 122.083 234.392C124.063 233.854 125.962 234.42 127.832 235.02C131.077 236.061 134.319 237.109 137.562 238.157C139.366 238.741 141.171 239.324 142.975 239.906L143.21 239.982C144.189 240.298 145.168 240.614 146.155 240.902C146.517 241.007 146.907 241.061 147.285 241.062C148.912 241.068 150.539 241.069 152.166 241.07C153.788 241.071 155.409 241.071 157.03 241.077C157.271 241.078 157.683 241.145 157.718 241.267C157.794 241.529 157.793 241.813 157.792 242.098C157.792 242.208 157.791 242.319 157.796 242.429C157.786 242.426 157.777 242.422 157.768 242.418C157.753 242.412 157.738 242.406 157.724 242.399C157.672 242.375 157.62 242.352 157.57 242.356C157.387 242.373 157.203 242.395 157.02 242.418C156.747 242.451 156.475 242.485 156.201 242.499C155.252 242.548 154.302 242.592 153.353 242.636C152.083 242.695 150.813 242.754 149.544 242.825C147.299 242.951 145.182 242.318 143.084 241.691L143.083 241.691L143.064 241.686C141.435 241.199 139.827 240.644 138.219 240.09C137.31 239.776 136.401 239.463 135.489 239.161C134.348 238.785 133.205 238.417 132.061 238.05L132.061 238.05L132.06 238.05L132.059 238.049L132.058 238.049L132.057 238.049L132.056 238.048L132.055 238.048C130.734 237.624 129.414 237.199 128.098 236.761C127.765 236.65 127.441 236.503 127.118 236.355C126.602 236.12 126.09 235.886 125.551 235.806C124.561 235.659 123.5 235.739 122.513 235.934C122.127 236.01 121.694 236.624 121.573 237.071C121.41 237.669 121.521 238.257 122.22 238.701C125.463 240.763 128.882 242.473 132.394 244.024C135.584 245.434 138.877 246.532 142.241 247.428C142.78 247.571 143.364 247.583 143.929 247.594C145.217 247.618 146.506 247.634 147.795 247.65C149.973 247.677 152.15 247.704 154.326 247.771C156.736 247.844 159.144 247.961 161.552 248.078C162.672 248.132 163.792 248.186 164.912 248.236C165.905 248.281 166.898 248.324 167.891 248.367C169.33 248.429 170.769 248.491 172.208 248.558C172.518 248.572 172.829 248.598 173.14 248.624L173.14 248.624C173.687 248.669 174.233 248.715 174.777 248.697C175.255 248.682 175.73 248.616 176.206 248.55C176.618 248.493 177.029 248.436 177.442 248.411C177.721 248.395 178.003 248.436 178.286 248.478L178.286 248.478C178.515 248.511 178.744 248.545 178.973 248.548C179.118 248.55 179.264 248.552 179.41 248.554L179.799 248.561H179.8C181.069 248.581 182.339 248.602 183.605 248.541C184.698 248.489 185.789 248.403 186.88 248.317H186.88H186.88H186.88H186.88H186.88H186.88H186.88L186.882 248.317C187.933 248.234 188.985 248.151 190.038 248.098C190.351 248.083 190.667 248.16 190.984 248.238L190.984 248.238C191.263 248.307 191.543 248.376 191.822 248.382C193.738 248.421 195.656 248.417 197.573 248.39C199.442 248.364 201.311 248.315 203.178 248.226C203.548 248.208 203.92 248.144 204.291 248.08C204.84 247.985 205.386 247.891 205.918 247.949C208.054 248.18 210.196 248.239 212.336 248.298H212.337C213.807 248.338 215.276 248.379 216.741 248.475C219.387 248.649 221.73 248.017 224.05 247.068C227.191 245.785 230.306 244.425 233.362 242.954C235.273 242.035 237.096 240.927 238.913 239.823L239.245 239.621C240.403 238.918 241.287 237.925 241.65 236.562C241.833 235.875 241.45 235.349 240.761 235.334C238.623 235.287 236.671 236.029 234.73 236.776C231.907 237.863 229.096 238.98 226.294 240.12C225.163 240.58 224.04 241.061 222.918 241.543L222.917 241.543L222.916 241.544L222.915 241.544L222.914 241.544L222.914 241.545L222.913 241.545L222.912 241.546C222.07 241.907 221.229 242.268 220.383 242.62C220.088 242.742 219.748 242.812 219.429 242.813C216.755 242.824 214.081 242.823 211.407 242.822C210.673 242.822 209.938 242.821 209.204 242.821C208.468 242.821 207.733 242.822 206.997 242.822C205.008 242.822 203.018 242.823 201.029 242.819C200.348 242.818 199.667 242.795 198.987 242.77C198.943 242.768 198.873 242.66 198.868 242.597C198.862 242.509 198.866 242.42 198.869 242.331C198.874 242.206 198.878 242.082 198.857 241.962C198.764 241.451 198.983 241.373 199.453 241.376C202.808 241.398 206.163 241.409 209.518 241.382C209.852 241.379 210.186 241.377 210.52 241.374C213.36 241.353 216.201 241.333 219.035 241.188C219.935 241.142 220.84 240.751 221.7 240.379L221.702 240.379L221.703 240.378L221.825 240.326L221.92 240.285C226.831 238.178 231.792 236.202 236.903 234.633C237.829 234.349 238.815 234.242 239.792 234.136H239.792L240.006 234.113C240.119 234.1 240.232 234.088 240.344 234.075C241.01 233.998 241.716 233.949 242.361 234.087C243.387 234.304 243.812 235.288 243.499 236.316C242.929 238.185 241.79 239.608 240.133 240.617C238.95 241.338 237.763 242.052 236.569 242.77C235.47 243.432 234.366 244.096 233.254 244.773C231.973 245.289 230.694 245.792 229.418 246.293ZM216.917 253.414C215.05 251.381 212.892 251.007 210.32 252.494C208.834 253.353 208.181 255.373 208.306 256.654C208.441 258.032 209.13 259.175 210.182 260.07C211.445 261.144 212.921 261.146 214.442 260.819C217.819 260.093 218.833 255.706 216.917 253.414ZM144.061 255.643C144.061 255.789 144.058 255.934 144.056 256.079C144.05 256.394 144.045 256.709 144.065 257.022C144.236 259.603 147.233 261.608 149.874 260.849C151.755 260.309 152.839 259.185 153.224 257.213C153.813 254.188 151.934 252.009 149.339 251.633C146.776 251.262 144.667 252.677 144.061 255.643ZM164.556 264.799L170.536 264.799H200.016C201.401 264.799 202.785 264.799 204.17 264.799H204.182C210.761 264.801 217.34 264.802 223.919 264.779C224.349 264.777 224.822 264.53 225.176 264.286C225.271 264.221 225.069 263.702 224.873 263.479C224.74 263.329 224.379 263.274 224.12 263.274C203.139 263.268 182.159 263.266 161.178 263.265H160.982C152.734 263.264 144.485 263.264 136.237 263.263C135.932 263.263 135.627 263.243 135.322 263.222H135.322H135.321H135.321L135.32 263.222L135.154 263.211C135.1 263.207 135.046 263.204 134.992 263.201C134.486 263.171 133.831 263.845 134.04 264.231C134.34 264.786 134.955 264.8 135.558 264.8C145.198 264.799 154.839 264.799 164.525 264.799H164.53H164.535H164.54H164.546H164.551H164.556ZM111.9 265.194L107.905 265.194H107.898H107.892H107.885H107.878H107.872C102.014 265.194 96.199 265.195 90.3841 265.192L90.3431 265.192C90.3242 265.192 90.3051 265.193 90.2861 265.193C90.259 265.194 90.2318 265.195 90.2046 265.196L90.1987 265.196C89.806 265.209 89.4143 265.222 89.2577 264.71C89.0762 264.118 89.325 263.687 89.9858 263.61C90.1111 263.596 90.2392 263.6 90.3672 263.603L90.4024 263.605L90.462 263.606C90.489 263.607 90.5161 263.607 90.5431 263.607L96.6399 263.607C106.986 263.607 117.332 263.607 127.678 263.605C127.712 263.605 127.746 263.605 127.78 263.605C128.315 263.602 128.822 263.599 128.799 264.322C128.781 264.921 128.425 265.194 127.599 265.194L121.832 265.194L115.704 265.194H111.9ZM250.845 265.197L255.068 265.197L257.749 265.197H257.757H257.765H257.773H257.781C261.179 265.198 264.537 265.198 267.896 265.19C268.246 265.19 268.601 265.119 268.942 265.04C269.036 265.018 269.13 264.854 269.152 264.743C269.325 263.889 269.047 263.61 268.047 263.61L230.919 263.61C230.861 263.61 230.802 263.608 230.743 263.605H230.743C230.614 263.599 230.486 263.594 230.363 263.615C229.681 263.73 229.438 264.203 229.709 264.776C229.916 265.215 230.301 265.206 230.687 265.198C230.741 265.196 230.795 265.195 230.848 265.195C237.495 265.197 244.141 265.197 250.833 265.197H250.839H250.845ZM222 53.3031C222.139 53.2889 222.792 53.3905 223.597 53.5158C224.698 53.6871 226.083 53.9027 226.826 53.9266C227.57 53.9505 226.864 54.7473 226.741 54.7526C225.099 54.8223 221.541 53.7382 222 53.3031ZM224.398 59.5889C223.702 59.3257 224.035 57.1957 224.724 57.1957C225.405 57.1957 225.076 59.8459 224.398 59.5889ZM214.381 254.893C214.982 256.257 214.942 256.815 214.226 257.557C213.737 258.063 212.851 258.149 212.296 257.744C211.703 257.312 211.428 256.289 211.714 255.579C212.217 254.331 213.323 254.026 214.381 254.893ZM149.995 254.998C149.061 254.134 148.131 254.182 146.988 255.302C146.572 256.265 146.776 257.286 148.319 257.558C149.149 257.704 149.642 257.459 150.1 256.962C150.578 256.444 150.441 255.411 149.995 254.998Z" fill="white"/>
<path fill-rule="evenodd" clip-rule="evenodd" d="M204.19 81.3049C202.801 80.8972 202.471 78.7909 201.07 78.427C199.684 78.067 198.353 79.7084 196.971 79.3336C196.031 79.0787 195.592 78.0411 195.072 77.2184C194.566 76.4178 193.499 75.6952 192.738 76.2119L192.675 76.2578C191.619 77.0907 190.035 76.5646 188.971 75.741C187.907 74.9174 187.005 73.8073 185.728 73.3836C186.398 72.7218 187.56 73.202 188.209 73.8848C188.859 74.5677 189.387 75.4674 190.289 75.7405C191.671 76.1591 193.228 74.8756 194.532 75.4948C195.344 75.8799 195.673 76.8311 196.159 77.5862C196.644 78.3412 197.701 78.9741 198.391 78.3992C200.064 77.0039 203.055 77.8884 203.7 79.9694C203.887 80.5729 204.713 81.4584 204.19 81.3049Z" fill="#E7EAEE"/>
<path fill-rule="evenodd" clip-rule="evenodd" d="M121.342 239.458C125.2 241.731 137.288 248.428 146.149 248.65L219.439 248.881C219.439 248.881 257.976 235.328 229.8 240.441C228.205 240.731 223.638 243.462 216.295 244.058C202.872 245.146 146.149 244.45 146.149 244.45C146.149 244.45 120.327 238.86 121.342 239.458Z" fill="#E7EAEE"/>
<path fill-rule="evenodd" clip-rule="evenodd" d="M58.4001 194.369C58.4904 194.269 58.5999 194.197 58.6678 194.226C59.4397 194.545 59.8849 194.267 60.1194 193.505C60.1582 193.379 60.3564 193.3 60.481 193.2C60.5956 193.353 60.8066 193.505 60.8071 193.658C60.8087 194.167 61.0293 194.406 61.5123 194.557C61.7183 194.621 61.8401 194.951 62.0001 195.16C61.8389 195.197 61.5958 195.184 61.5337 195.282C61.4076 195.483 61.3415 195.741 61.3225 195.981C61.3063 196.185 61.4086 196.396 61.4265 196.606C61.45 196.882 61.4056 197.085 61.0802 196.807C60.4305 196.251 59.8667 196.459 59.3117 196.983C59.1772 197.11 58.9404 197.131 58.7506 197.2C58.7853 197.027 58.7957 196.845 58.8588 196.683C59.1899 195.836 58.9612 195.108 58.4001 194.369Z" fill="#FFB61D"/>
<path fill-rule="evenodd" clip-rule="evenodd" d="M177.537 89.7228L177.859 90.2196L177.965 90.3801C178.64 91.37 179.665 92.3431 180.805 92.0546C183.839 91.2869 187.291 92.6268 189.011 95.2403C189.862 96.5325 191.751 96.279 193.295 95.948L193.499 95.9036C195.048 95.5602 197.19 95.7217 197.581 97.2227L197.602 97.3091C197.782 98.1732 198.87 98.436 199.766 98.4132L200.043 98.4031C202.295 98.4031 202.59 99.6414 202.59 99.5142C202.59 99.5142 197.64 99.139 196.598 97.4598L196.534 97.3529C195.871 96.1907 194.195 96.3799 192.884 96.7751L192.524 96.8878L192.343 96.9405C191.063 97.2989 189.51 97.4287 188.868 96.3245C187.394 93.791 184.324 92.2855 181.418 92.671C180.67 92.7702 179.894 92.9804 179.177 92.7431C177.464 92.1757 177.24 89.5297 175.554 88.8847C173.427 88.0708 171.367 91.1632 169.165 90.5794C170.504 89.5578 171.989 88.727 173.56 88.12C174.087 87.9165 174.646 87.7354 175.206 87.8034C176.244 87.9292 176.941 88.8214 177.537 89.7228ZM204.568 92.7757C204.355 93.4297 204.199 94.0106 204.095 94.5035C203.879 93.083 202.468 91.7694 201.136 92.2295L201.06 92.258C200.215 92.5945 199.32 91.8959 198.774 91.1692L198.643 90.9924L198.446 90.7218C198.005 90.1187 197.529 89.5238 196.823 89.352C195.53 89.038 194.389 90.325 193.068 90.4786C190.009 90.834 188.481 85.3594 185.478 86.0387C184.822 86.1873 184.254 86.6371 183.587 86.7282C181.746 86.9797 180.758 84.6387 179.207 83.6164C178.039 82.847 176.391 82.8935 175.269 83.7276C175.326 82.3908 177.144 81.8017 178.385 82.3047C179.626 82.8077 180.478 83.9385 181.509 84.7931C182.513 85.6264 184.005 86.1988 185.099 85.5207L185.182 85.4661C186.498 84.555 188.259 85.7107 189.287 86.9379L189.66 87.3851C190.599 88.5019 191.671 89.6623 193.078 89.5552C194.37 89.4568 195.469 88.2533 196.75 88.4457C198.617 88.7262 199.38 91.7349 201.257 91.5313C202.463 91.4004 203.718 91.8055 204.62 92.6169L204.568 92.7757ZM205.537 86.4805C205.236 86.9026 204.934 87.2418 204.631 87.4978L204.53 87.5801L204.277 87.3996C203.05 86.5276 201.709 85.679 200.217 85.7141C199.671 85.727 199.113 85.8586 198.59 85.705C197.201 85.2973 196.871 83.191 195.47 82.8271C194.084 82.4672 192.753 84.1085 191.371 83.7338C190.431 83.4789 189.992 82.4413 189.472 81.6185C188.966 80.818 187.899 80.0954 187.138 80.612L187.075 80.658C186.019 81.4908 184.435 80.9647 183.371 80.1411C182.307 79.3175 181.405 78.2074 180.128 77.7837C180.798 77.1219 181.96 77.6021 182.609 78.285C183.259 78.9678 183.787 79.8675 184.689 80.1407C186.071 80.5592 187.627 79.2757 188.932 79.8949C189.743 80.28 190.073 81.2313 190.559 81.9863C191.044 82.7414 192.101 83.3742 192.791 82.7994C194.464 81.4041 197.455 82.2886 198.1 84.3695C198.287 84.9731 199.091 85.1135 199.711 84.9923C200.331 84.871 200.969 84.6005 201.572 84.7904C202.339 85.032 202.732 85.9238 203.471 86.2409C204.239 86.5708 205.159 86.1513 205.673 85.4874L205.725 85.4179C206.138 84.8384 205.944 85.9099 205.537 86.4805Z" fill="#FFB61D"/>
<path fill-rule="evenodd" clip-rule="evenodd" d="M189.433 102.35L189.664 102.418C189.974 102.512 190.208 102.652 190.48 102.883L190.614 103.001L190.785 103.157C190.868 103.232 190.933 103.288 190.999 103.343C191.453 103.714 191.966 103.945 192.823 104.081C193.398 104.172 193.803 104.081 194.501 103.756L194.753 103.635C195.882 103.091 196.538 102.939 197.596 103.182C198.5 103.39 198.915 103.74 199.253 104.398L199.338 104.573C199.5 104.91 200.021 105.222 200.432 105.468C200.741 105.652 200.987 105.8 200.975 105.894C200.945 106.112 199.037 105.759 198.657 105.001L198.575 104.831C198.328 104.323 198.103 104.12 197.417 103.962C196.612 103.777 196.124 103.874 195.226 104.296L194.974 104.417C194.062 104.855 193.504 104.999 192.697 104.871C191.7 104.713 191.055 104.423 190.492 103.961C190.453 103.929 190.415 103.897 190.375 103.863L190.04 103.56C189.805 103.351 189.646 103.249 189.43 103.183L189.298 103.143C188.74 102.979 187.462 103.404 186.53 103.713L186.53 103.713C185.946 103.907 185.498 104.056 185.45 103.986C185.345 103.835 188.32 102.051 189.433 102.35ZM189.296 108.43L189.51 108.489C189.798 108.572 190.015 108.695 190.267 108.898L190.392 109.002L190.551 109.139C190.627 109.205 190.687 109.254 190.749 109.302C191.169 109.629 191.645 109.831 192.44 109.951C192.973 110.031 193.348 109.951 193.996 109.665L194.23 109.559C195.276 109.081 195.885 108.947 196.866 109.161C197.705 109.344 198.09 109.651 198.403 110.23L198.482 110.383C198.632 110.68 199.115 110.953 199.497 111.17C199.783 111.332 200.011 111.461 200 111.544C199.972 111.736 198.202 111.425 197.85 110.759L197.774 110.61C197.545 110.163 197.336 109.985 196.7 109.846C195.954 109.684 195.501 109.769 194.668 110.14L194.435 110.246C193.589 110.631 193.072 110.758 192.324 110.645C191.399 110.506 190.801 110.251 190.279 109.846C190.242 109.818 190.207 109.789 190.17 109.759L189.86 109.493C189.642 109.31 189.494 109.219 189.294 109.162L189.171 109.126C188.653 108.983 187.468 109.356 186.605 109.627L186.605 109.627C186.063 109.798 185.648 109.929 185.603 109.867C185.505 109.734 188.265 108.167 189.296 108.43ZM189.693 114.889L189.491 114.83C188.517 114.567 185.911 116.134 186.002 116.267C186.045 116.329 186.437 116.198 186.949 116.027C187.765 115.756 188.884 115.383 189.373 115.526L189.489 115.562C189.677 115.619 189.817 115.71 190.023 115.893L190.316 116.159C190.351 116.189 190.384 116.218 190.419 116.246C190.912 116.651 191.477 116.906 192.35 117.045C193.057 117.158 193.545 117.031 194.344 116.646L194.564 116.54C195.351 116.169 195.779 116.084 196.483 116.246C197.084 116.385 197.282 116.563 197.498 117.01L197.57 117.159C197.902 117.825 199.574 118.136 199.6 117.944C199.611 117.861 199.395 117.732 199.125 117.57C198.764 117.353 198.308 117.08 198.166 116.783L198.092 116.63C197.796 116.051 197.432 115.744 196.64 115.561C195.714 115.347 195.139 115.481 194.15 115.959L193.93 116.065C193.318 116.351 192.963 116.431 192.46 116.351C191.71 116.231 191.26 116.029 190.863 115.702C190.805 115.654 190.748 115.605 190.676 115.539L190.526 115.402L190.408 115.298C190.17 115.095 189.965 114.972 189.693 114.889ZM189.491 122.43L189.693 122.489C189.965 122.572 190.17 122.695 190.408 122.898L190.526 123.002L190.676 123.139C190.748 123.205 190.805 123.254 190.863 123.302C191.26 123.629 191.71 123.831 192.46 123.951C192.963 124.031 193.318 123.951 193.93 123.665L194.15 123.559C195.139 123.081 195.714 122.947 196.64 123.161C197.432 123.344 197.796 123.651 198.092 124.23L198.166 124.383C198.308 124.68 198.764 124.953 199.125 125.17C199.395 125.332 199.611 125.461 199.6 125.544C199.574 125.736 197.902 125.425 197.57 124.759L197.498 124.61C197.282 124.163 197.084 123.985 196.483 123.846C195.779 123.684 195.351 123.769 194.564 124.14L194.344 124.246C193.545 124.631 193.057 124.758 192.35 124.645C191.477 124.506 190.912 124.251 190.419 123.846C190.384 123.818 190.351 123.789 190.316 123.759L190.023 123.493C189.817 123.31 189.677 123.219 189.489 123.162L189.373 123.126C188.884 122.983 187.765 123.356 186.949 123.627L186.949 123.627C186.437 123.798 186.045 123.929 186.002 123.867C185.911 123.734 188.517 122.167 189.491 122.43ZM190.31 130.089L190.096 130.03C189.065 129.767 186.305 131.334 186.403 131.467C186.448 131.529 186.863 131.398 187.405 131.227L187.405 131.227C188.268 130.956 189.453 130.583 189.971 130.726L190.094 130.762C190.294 130.819 190.442 130.91 190.66 131.093L190.97 131.359C191.007 131.389 191.042 131.418 191.079 131.446C191.601 131.851 192.199 132.106 193.124 132.245C193.872 132.358 194.389 132.231 195.235 131.846L195.468 131.74C196.301 131.369 196.754 131.284 197.5 131.446C198.136 131.585 198.345 131.763 198.574 132.21L198.65 132.359C199.002 133.025 200.772 133.336 200.8 133.144C200.811 133.061 200.583 132.932 200.297 132.77C199.915 132.553 199.432 132.28 199.282 131.983L199.203 131.83C198.89 131.251 198.505 130.944 197.666 130.761C196.685 130.547 196.076 130.681 195.03 131.159L194.796 131.265C194.148 131.551 193.773 131.631 193.24 131.551C192.445 131.431 191.969 131.229 191.549 130.902C191.487 130.854 191.427 130.805 191.351 130.739L191.192 130.602L191.067 130.498C190.815 130.295 190.598 130.172 190.31 130.089ZM192.277 137.062L192.498 137.083C192.796 137.115 193.031 137.199 193.314 137.354L193.455 137.435L193.635 137.542C193.722 137.594 193.79 137.633 193.859 137.669C194.33 137.917 194.834 138.034 195.637 138.014C196.176 138.001 196.532 137.856 197.12 137.462L197.331 137.318C198.279 136.664 198.855 136.427 199.859 136.468C200.716 136.502 201.149 136.738 201.558 137.253L201.662 137.391C201.861 137.657 202.385 137.842 202.798 137.989L202.798 137.989C203.108 138.099 203.356 138.187 203.358 138.27C203.365 138.464 201.568 138.465 201.106 137.871L201.004 137.737C200.702 137.337 200.465 137.197 199.814 137.171C199.051 137.141 198.62 137.303 197.864 137.813L197.653 137.958C196.887 138.484 196.399 138.699 195.643 138.718C194.708 138.742 194.075 138.595 193.49 138.286L193.368 138.219L193.016 138.012C192.77 137.869 192.608 137.805 192.402 137.783L192.275 137.77C191.74 137.718 190.637 138.291 189.834 138.709C189.33 138.971 188.944 139.172 188.889 139.119C188.77 139.005 191.215 136.982 192.277 137.062ZM197.322 142.242L197.145 142.259C196.297 142.358 194.61 144.223 194.718 144.289C194.767 144.32 195.048 144.114 195.415 143.844L195.415 143.844C195.999 143.415 196.8 142.826 197.229 142.784L197.331 142.775C197.497 142.761 197.632 142.784 197.844 142.853L198.147 142.955L198.252 142.986C198.751 143.128 199.269 143.143 200.005 142.986C200.6 142.859 200.959 142.627 201.501 142.123L201.65 141.984C202.186 141.493 202.506 141.308 203.113 141.217C203.63 141.139 203.834 141.208 204.122 141.46L204.218 141.544C204.655 141.916 206.074 141.647 206.046 141.504C206.034 141.443 205.827 141.415 205.569 141.379C205.225 141.332 204.789 141.272 204.599 141.105L204.5 141.018C204.115 140.697 203.744 140.586 203.063 140.688C202.265 140.808 201.839 141.07 201.169 141.695L201.02 141.834C200.603 142.214 200.339 142.374 199.915 142.465C199.283 142.599 198.87 142.588 198.468 142.473C198.41 142.457 198.351 142.438 198.276 142.413L198.121 142.36L198 142.321C197.757 142.248 197.562 142.221 197.322 142.242ZM201.545 145.859L201.722 145.842C201.962 145.821 202.157 145.848 202.4 145.921L202.521 145.96L202.676 146.013C202.751 146.038 202.81 146.057 202.868 146.073C203.27 146.188 203.683 146.199 204.315 146.065C204.739 145.974 205.003 145.814 205.42 145.434L205.569 145.295C206.239 144.67 206.665 144.408 207.463 144.288C208.144 144.186 208.515 144.297 208.9 144.618L208.999 144.705C209.189 144.872 209.625 144.932 209.969 144.979C210.227 145.015 210.434 145.043 210.446 145.104C210.474 145.247 209.055 145.516 208.618 145.144L208.522 145.06C208.234 144.807 208.03 144.739 207.513 144.817C206.906 144.908 206.586 145.093 206.05 145.584L205.901 145.723C205.359 146.227 205 146.459 204.405 146.586C203.669 146.743 203.151 146.728 202.652 146.586L202.547 146.555L202.244 146.453C202.032 146.384 201.897 146.361 201.731 146.375L201.629 146.384C201.2 146.426 200.399 147.015 199.815 147.444L199.815 147.444C199.448 147.714 199.167 147.92 199.118 147.889C199.01 147.823 200.697 145.958 201.545 145.859ZM207.354 149.733L207.214 149.772C206.55 149.971 205.465 151.699 205.56 151.738C205.604 151.755 205.8 151.551 206.055 151.284C206.461 150.858 207.019 150.274 207.356 150.18L207.436 150.159C207.567 150.124 207.678 150.123 207.857 150.149L208.114 150.187L208.202 150.198C208.621 150.241 209.037 150.179 209.603 149.95C210.061 149.765 210.316 149.529 210.677 149.05L210.777 148.917C211.136 148.449 211.366 148.256 211.838 148.098C212.241 147.963 212.413 147.989 212.679 148.15L212.768 148.204C213.17 148.44 214.267 148.025 214.224 147.914C214.205 147.867 214.036 147.874 213.825 147.882C213.543 147.892 213.186 147.906 213.011 147.799L212.919 147.744C212.566 147.541 212.254 147.505 211.724 147.683C211.103 147.891 210.799 148.16 210.352 148.755L210.252 148.887C209.972 149.249 209.784 149.414 209.458 149.546C208.971 149.743 208.64 149.792 208.302 149.757C208.253 149.752 208.204 149.745 208.14 149.736L208.009 149.715L207.907 149.701C207.702 149.677 207.542 149.683 207.354 149.733ZM211.66 153.004L211.8 152.965C211.988 152.915 212.148 152.909 212.352 152.933L212.455 152.947L212.586 152.968C212.65 152.977 212.699 152.984 212.748 152.989C213.086 153.024 213.417 152.975 213.903 152.778C214.23 152.646 214.418 152.481 214.698 152.118L214.798 151.986C215.245 151.392 215.549 151.123 216.17 150.914C216.7 150.737 217.012 150.773 217.365 150.976L217.457 151.031C217.632 151.138 217.989 151.124 218.271 151.113C218.482 151.105 218.651 151.099 218.669 151.146C218.712 151.257 217.615 151.671 217.213 151.435L217.125 151.382C216.859 151.221 216.687 151.195 216.284 151.33C215.812 151.488 215.582 151.681 215.223 152.149L215.123 152.281C214.761 152.761 214.507 152.997 214.049 153.182C213.483 153.411 213.067 153.472 212.647 153.429L212.56 153.419L212.303 153.381C212.124 153.355 212.012 153.356 211.882 153.391L211.801 153.412C211.464 153.506 210.907 154.09 210.5 154.515C210.246 154.782 210.05 154.987 210.006 154.969C209.911 154.931 210.996 153.203 211.66 153.004ZM217 156.165L216.86 156.204C216.196 156.403 215.111 158.131 215.206 158.169C215.25 158.187 215.446 157.982 215.7 157.715C216.107 157.29 216.664 156.706 217.001 156.612L217.082 156.591C217.212 156.556 217.324 156.555 217.503 156.581L217.76 156.619L217.847 156.629C218.267 156.672 218.683 156.611 219.249 156.382C219.707 156.197 219.961 155.961 220.323 155.481L220.423 155.349C220.782 154.881 221.012 154.688 221.484 154.53C221.887 154.395 222.059 154.421 222.325 154.582L222.413 154.635C222.815 154.871 223.912 154.457 223.869 154.346C223.851 154.299 223.682 154.305 223.471 154.313C223.189 154.324 222.832 154.338 222.657 154.231L222.565 154.176C222.212 153.973 221.9 153.937 221.37 154.114C220.749 154.323 220.445 154.592 219.998 155.186L219.898 155.318C219.618 155.681 219.43 155.846 219.103 155.978C218.617 156.175 218.286 156.224 217.948 156.189C217.899 156.184 217.85 156.177 217.786 156.168L217.655 156.147L217.552 156.133C217.348 156.109 217.188 156.115 217 156.165Z" fill="#FFB61D"/>
</svg>
