<svg width="95" height="60" viewBox="0 0 95 60" fill="none" xmlns="http://www.w3.org/2000/svg">
<g clip-path="url(#clip0_87_825)">
<path d="M0 0.000732422H95V59.9995H0V0.000732422Z" fill="#D80027"/>
<path d="M0 41.7393H95V59.9994H0V41.7393Z" fill="#6DA544"/>
<path d="M0 0.000732422H95V18.3725H0V0.000732422Z" fill="#338AF3"/>
<path d="M0 22.0684H95V37.8282H0V22.0684Z" fill="white"/>
<path d="M0 0.000732422H95V18.3725H0V0.000732422Z" fill="#338AF3"/>
<path d="M35.0104 9.18568C35.0104 6.37599 37.0948 4.02843 39.8784 3.45274C39.4423 3.36223 38.9972 3.31643 38.5508 3.31616C35.129 3.31616 32.3552 5.94392 32.3552 9.18568C32.3552 12.4274 35.129 15.0552 38.5508 15.0552C39.0069 15.0552 39.4507 15.0072 39.8784 14.9186C37.0948 14.3429 35.0104 11.9954 35.0104 9.18568ZM43.54 11.8535L43.9595 13.0764H45.3168L44.2187 13.8325L44.6382 15.0552L43.54 14.2993L42.4419 15.0552L42.8614 13.8325L41.7634 13.0764H43.1207L43.54 11.8535ZM47.8721 11.8535L48.2915 13.0764H49.6487L48.5507 13.8325L48.9702 15.0552L47.8721 14.2993L46.7741 15.0552L47.1934 13.8325L46.0955 13.0764H47.4526L47.8721 11.8535ZM52.2041 11.8535L52.6234 13.0764H53.9807L52.8828 13.8325L53.3022 15.0552L52.2041 14.2993L51.106 15.0552L51.5254 13.8325L50.4273 13.0764H51.7846L52.2041 11.8535ZM56.5361 11.8535L56.9558 13.0764H58.313L57.2148 13.8325L57.6343 15.0552L56.5361 14.2993L55.438 15.0552L55.8577 13.8325L54.7595 13.0764H56.1165L56.5361 11.8535ZM60.8682 11.8535L61.2876 13.0764H62.6448L61.5468 13.8325L61.9663 15.0552L60.8682 14.2993L59.7701 15.0552L60.1895 13.8325L59.0916 13.0764H60.4487L60.8682 11.8535ZM47.8721 7.58484L48.2915 8.80758H49.6487L48.5507 9.56344L48.9702 10.7863L47.8721 10.0307L46.7741 10.7863L47.1934 9.56344L46.0955 8.80758H47.4526L47.8721 7.58484ZM52.2041 7.58484L52.6234 8.80758H53.9807L52.8828 9.56344L53.3022 10.7863L52.2041 10.0307L51.106 10.7863L51.5254 9.56344L50.4273 8.80758H51.7846L52.2041 7.58484ZM56.5361 7.58484L56.9558 8.80758H58.313L57.2148 9.56344L57.6343 10.7863L56.5361 10.0307L55.438 10.7863L55.8577 9.56344L54.7595 8.80758H56.1165L56.5361 7.58484ZM60.8682 7.58484L61.2876 8.80758H62.6448L61.5468 9.56344L61.9663 10.7863L60.8682 10.0307L59.7701 10.7863L60.1895 9.56344L59.0916 8.80758H60.4487L60.8682 7.58484ZM52.2041 3.31616L52.6234 4.5389H53.9807L52.8828 5.29476L53.3022 6.51767L52.2041 5.76181L51.106 6.51767L51.5254 5.29476L50.4273 4.5389H51.7846L52.2041 3.31616ZM56.5361 3.31616L56.9558 4.5389H58.313L57.2148 5.29476L57.6343 6.51767L56.5361 5.76181L55.438 6.51767L55.8577 5.29476L54.7595 4.5389H56.1165L56.5361 3.31616ZM60.8682 3.31616L61.2876 4.5389H62.6448L61.5468 5.29476L61.9663 6.51767L60.8682 5.76181L59.7701 6.51767L60.1895 5.29476L59.0916 4.5389H60.4487L60.8682 3.31616Z" fill="white"/>
</g>
<defs>
<clipPath id="clip0_87_825">
<rect width="95" height="60" rx="10" fill="white"/>
</clipPath>
</defs>
</svg>
