<svg width="95" height="60" viewBox="0 0 95 60" fill="none" xmlns="http://www.w3.org/2000/svg">
<g clip-path="url(#clip0_87_698)">
<path d="M0 0.019043H95V60.019H0V0.019043Z" fill="white"/>
<path d="M41.3778 24H0V36H41.3778V60H54.0444V36H95.4222V24H54.0444V0H41.3778V24Z" fill="#EB000E"/>
<path d="M73.0446 10.8L72.2002 6H76.4224L75.5779 10.8L80.6446 10V14L75.5779 13.2L76.4224 18H72.2002L73.0446 13.2L67.9779 14V10L73.0446 10.8ZM19.4224 10.8L18.5779 6H22.8002L21.9557 10.8L27.0224 10V14L21.9557 13.2L22.8002 18H18.5779L19.4224 13.2L14.3557 14V10L19.4224 10.8ZM19.4224 46.8L18.5779 42H22.8002L21.9557 46.8L27.0224 46V50L21.9557 49.2L22.8002 54H18.5779L19.4224 49.2L14.3557 50V46L19.4224 46.8ZM73.0446 46.8L72.2002 42H76.4224L75.5779 46.8L80.6446 46V50L75.5779 49.2L76.4224 54H72.2002L73.0446 49.2L67.9779 50V46L73.0446 46.8Z" fill="#EB000E"/>
</g>
<defs>
<clipPath id="clip0_87_698">
<rect width="95" height="60" rx="10" fill="white"/>
</clipPath>
</defs>
</svg>
