<svg width="95" height="60" viewBox="0 0 95 60" fill="none" xmlns="http://www.w3.org/2000/svg">
<g clip-path="url(#clip0_87_748)">
<path d="M0 0H95V60H0V0Z" fill="#009B3A"/>
<path d="M47.5 3.38599L85.4444 29.9474L47.5 56.4913L9.37036 29.9474L47.5 3.38599Z" fill="#FEDF00"/>
<path d="M47.5 44.1053C55.7229 44.1053 62.3889 37.7902 62.3889 30C62.3889 22.2099 55.7229 15.8948 47.5 15.8948C39.2771 15.8948 32.6111 22.2099 32.6111 30C32.6111 37.7902 39.2771 44.1053 47.5 44.1053Z" fill="white"/>
<path d="M39.9816 29.0701C37.4075 29.0701 34.9075 29.4385 32.5557 30.1227C32.6668 37.8245 39.2779 44.035 47.426 44.035C52.4631 44.035 56.926 41.649 59.6112 38.0174C55.0001 32.5788 47.9075 29.0701 39.9816 29.0701ZM62.0186 32.6315C62.1853 31.7543 62.2964 30.8596 62.2964 29.9297C62.2964 22.1403 55.6297 15.8245 47.4075 15.8245C41.2779 15.8245 36.0186 19.3508 33.7223 24.3508C35.7408 23.9648 37.8149 23.7543 39.9446 23.7543C48.6112 23.7718 56.426 27.1753 62.0186 32.6315Z" fill="#002776"/>
</g>
<defs>
<clipPath id="clip0_87_748">
<rect width="95" height="60" rx="10" fill="white"/>
</clipPath>
</defs>
</svg>
