<svg width="68" height="26" viewBox="0 0 68 26" fill="none" xmlns="http://www.w3.org/2000/svg">
<path d="M0.1 20V1.324H7.128C10.2267 1.324 12.5133 2.108 13.988 3.676C15.4813 5.244 16.228 7.568 16.228 10.648C16.228 13.728 15.4813 16.0613 13.988 17.648C12.5133 19.216 10.2267 20 7.128 20H0.1ZM3.908 16.948H6.708C8.59333 16.948 10.0027 16.4533 10.936 15.464C11.8693 14.456 12.336 12.8507 12.336 10.648C12.336 8.464 11.8693 6.868 10.936 5.86C10.0027 4.852 8.59333 4.348 6.708 4.348H3.908V16.948ZM24.7748 20.42C23.9908 20.42 23.2441 20.3453 22.5348 20.196C21.8254 20.0467 21.1908 19.804 20.6308 19.468C20.0708 19.1133 19.6228 18.6373 19.2868 18.04C18.9694 17.424 18.8108 16.6587 18.8108 15.744C18.8108 14.792 19.0068 13.9893 19.3988 13.336C19.7908 12.664 20.3601 12.16 21.1068 11.824C21.8721 11.4693 22.8054 11.292 23.9068 11.292C24.5788 11.292 25.2041 11.3573 25.7828 11.488C26.3614 11.6 26.8841 11.7587 27.3508 11.964C27.8174 12.1693 28.2001 12.3933 28.4988 12.636L28.7508 14.624C28.3588 14.3627 27.8548 14.1573 27.2388 14.008C26.6414 13.84 25.9881 13.756 25.2788 13.756C24.2894 13.756 23.5521 13.9147 23.0668 14.232C22.5814 14.5493 22.3388 15.044 22.3388 15.716C22.3388 16.1827 22.4694 16.5747 22.7308 16.892C22.9921 17.1907 23.3281 17.424 23.7388 17.592C24.1494 17.7413 24.5788 17.816 25.0268 17.816C26.0534 17.816 26.7908 17.7507 27.2388 17.62C27.7054 17.4707 27.9388 17.1627 27.9388 16.696V11.124C27.9388 10.2093 27.6494 9.54667 27.0708 9.136C26.4921 8.70667 25.6801 8.492 24.6348 8.492C23.8321 8.492 23.0108 8.632 22.1708 8.912C21.3308 9.17333 20.6494 9.51867 20.1268 9.948V6.728C20.6308 6.41067 21.3868 6.13067 22.3948 5.888C23.4028 5.64533 24.4854 5.524 25.6428 5.524C26.1281 5.524 26.6414 5.57067 27.1828 5.664C27.7241 5.75733 28.2374 5.90667 28.7228 6.112C29.2268 6.31733 29.6841 6.60667 30.0948 6.98C30.5054 7.33467 30.8321 7.792 31.0748 8.352C31.3174 8.89333 31.4388 9.556 31.4388 10.34V17.032C31.4388 17.9093 31.1588 18.6 30.5988 19.104C30.0388 19.5893 29.2641 19.9253 28.2748 20.112C27.2854 20.3173 26.1188 20.42 24.7748 20.42ZM35.3702 20V7.26C35.6315 7.092 36.0888 6.868 36.7422 6.588C37.4142 6.308 38.1888 6.06533 39.0662 5.86C39.9435 5.636 40.8302 5.524 41.7262 5.524C42.3982 5.524 42.9302 5.58 43.3222 5.692C43.7328 5.78533 44.0502 5.90667 44.2742 6.056V8.744C43.9008 8.688 43.4715 8.64133 42.9862 8.604C42.5195 8.56667 42.0342 8.55733 41.5302 8.576C41.0448 8.576 40.5688 8.59467 40.1022 8.632C39.6542 8.66933 39.2622 8.716 38.9262 8.772V20H35.3702ZM50.4646 20H46.9366V0.568H50.4646V20ZM57.0061 25.46C56.5954 25.46 56.1941 25.4227 55.8021 25.348C55.4287 25.2733 55.1021 25.1707 54.8221 25.04V22.1C55.0834 22.1933 55.3354 22.2587 55.5781 22.296C55.8207 22.352 56.0727 22.38 56.3341 22.38C56.8567 22.38 57.2954 22.2493 57.6501 21.988C58.0047 21.7453 58.3034 21.3533 58.5461 20.812C58.8074 20.2707 59.0127 19.5893 59.1621 18.768L59.2181 20.672L53.1981 5.888H57.2301L60.8701 16.416H60.4501L64.0621 5.888H67.8141L62.1301 20.56C61.6447 21.8107 61.1221 22.7907 60.5621 23.5C60.0021 24.2093 59.4141 24.7133 58.7981 25.012C58.2007 25.3107 57.6034 25.46 57.0061 25.46Z" fill="#484C52"/>
</svg>
