<svg width="25" height="24" viewBox="0 0 25 24" fill="none" xmlns="http://www.w3.org/2000/svg">
<path d="M12.2998 2C6.7898 2 2.2998 6.49 2.2998 12C2.2998 17.51 6.7898 22 12.2998 22C17.8098 22 22.2998 17.51 22.2998 12C22.2998 6.49 17.8098 2 12.2998 2ZM16.6498 15.57C16.5098 15.81 16.2598 15.94 15.9998 15.94C15.8698 15.94 15.7398 15.91 15.6198 15.83L12.5198 13.98C11.7498 13.52 11.1798 12.51 11.1798 11.62V7.52C11.1798 7.11 11.5198 6.77 11.9298 6.77C12.3398 6.77 12.6798 7.11 12.6798 7.52V11.62C12.6798 11.98 12.9798 12.51 13.2898 12.69L16.3898 14.54C16.7498 14.75 16.8698 15.21 16.6498 15.57Z" fill="#582FFF"/>
</svg>
