<svg width="20" height="20" viewBox="0 0 20 20" fill="none" xmlns="http://www.w3.org/2000/svg">
<path d="M5.3732 6.64118C5.63516 4.2836 7.62791 2.5 10 2.5V2.5C12.3721 2.5 14.3648 4.2836 14.6268 6.64118L14.8366 8.5297C14.9443 9.4985 15.2596 10.4327 15.7611 11.2685L16.2428 12.0714C16.5455 12.5759 16.6969 12.8281 16.7246 13.0315C16.7854 13.4772 16.5412 13.9087 16.1277 14.0858C15.939 14.1667 15.6448 14.1667 15.0565 14.1667H4.94353C4.35515 14.1667 4.06097 14.1667 3.87233 14.0858C3.45885 13.9087 3.21456 13.4772 3.27537 13.0315C3.30311 12.8281 3.45447 12.5759 3.75718 12.0714L4.23888 11.2685C4.74039 10.4327 5.05572 9.4985 5.16337 8.5297L5.3732 6.64118Z" stroke="#484C52"/>
<path d="M6.66683 14.1667C6.66683 14.6044 6.75305 15.0379 6.92056 15.4423C7.08808 15.8467 7.33361 16.2142 7.64314 16.5237C7.95267 16.8332 8.32013 17.0787 8.72455 17.2463C9.12897 17.4138 9.56242 17.5 10.0002 17.5C10.4379 17.5 10.8714 17.4138 11.2758 17.2463C11.6802 17.0787 12.0477 16.8332 12.3572 16.5237C12.6667 16.2142 12.9122 15.8467 13.0798 15.4423C13.2473 15.0379 13.3335 14.6044 13.3335 14.1667" stroke="#484C52" stroke-linecap="round"/>
</svg>
