<svg width="95" height="61" viewBox="0 0 95 61" fill="none" xmlns="http://www.w3.org/2000/svg">
<g clip-path="url(#clip0_87_861)">
<path d="M0 0.955322H95V60.9541H0V0.955322Z" fill="white"/>
<path d="M21.1568 30.9549L0 10.9026V51.0106L21.1568 30.9549Z" fill="black"/>
<path d="M29.9087 30.9546L0 2.60107V10.9025L21.1568 30.9548L0 51.0106V59.2966L29.9087 30.9546Z" fill="#FFB915"/>
<path d="M94.5979 36.8242C94.6087 36.7469 94.7471 36.6699 95 36.5925V25.0852H41.3031L15.8327 0.955322H0V2.60116L29.9087 30.9547L0 59.2966V60.9541H15.8327L41.3031 36.8242H94.5979Z" fill="#007847"/>
<path d="M93.3638 42.6938H43.8695L24.5947 60.954H95.0001V42.6938H93.3638Z" fill="#000C8A"/>
<path d="M93.3638 19.2155H95.0001V0.955322H24.5947L43.8695 19.2155H93.3638Z" fill="#E1392D"/>
</g>
<defs>
<clipPath id="clip0_87_861">
<rect y="0.95459" width="95" height="60" rx="10" fill="white"/>
</clipPath>
</defs>
</svg>
