<svg width="95" height="60" viewBox="0 0 95 60" fill="none" xmlns="http://www.w3.org/2000/svg">
<g clip-path="url(#clip0_87_816)">
<path d="M0 0H94.8148V60H0V0Z" fill="white"/>
<path d="M0 0H94.8148V20H0V0ZM0 40H94.8148V60H0V40Z" fill="#338AF3"/>
<path d="M47.4999 37.0175C51.5909 37.0175 54.9073 33.8756 54.9073 30C54.9073 26.1243 51.5909 22.9824 47.4999 22.9824C43.4089 22.9824 40.0925 26.1243 40.0925 30C40.0925 33.8756 43.4089 37.0175 47.4999 37.0175Z" fill="#FFDA44"/>
<path fill-rule="evenodd" clip-rule="evenodd" d="M47.5 23.4211C43.6647 23.4211 40.5556 26.3666 40.5556 30.0001C40.5556 33.6335 43.6647 36.579 47.5 36.579C51.3353 36.579 54.4445 33.6335 54.4445 30.0001C54.4445 26.3666 51.3353 23.4211 47.5 23.4211ZM39.6296 30.0001C39.6296 25.8822 43.1533 22.5439 47.5 22.5439C51.8467 22.5439 55.3704 25.8822 55.3704 30.0001C55.3704 34.118 51.8467 37.4562 47.5 37.4562C43.1533 37.4562 39.6296 34.118 39.6296 30.0001Z" fill="#D6AB00"/>
</g>
<defs>
<clipPath id="clip0_87_816">
<rect width="95" height="60" rx="10" fill="white"/>
</clipPath>
</defs>
</svg>
