<svg width="95" height="60" viewBox="0 0 95 60" fill="none" xmlns="http://www.w3.org/2000/svg">
<g clip-path="url(#clip0_87_811)">
<path d="M0 0H95V60H0V0Z" fill="white"/>
<path d="M0 0H95V20.0059H0V0Z" fill="#D80027"/>
<path d="M0 40.0117H95V60.0176H0V40.0117Z" fill="black"/>
<path d="M40.876 35.9333C40.876 35.9333 40.876 25.6667 41.7109 24.5592C42.2861 23.8032 44.8281 25.4733 45.9229 25.3502C45.9229 25.3502 46.7021 24.0318 46.7578 23.2407C46.8135 22.432 46.5537 21.9046 45.8486 22.1507C45.8486 22.1507 45.626 21.7815 45.9414 21.5706C46.2383 21.3596 46.9805 21.5882 46.9805 21.5882C46.9805 21.5882 46.8877 21.4124 47.2773 21.4299C47.8154 21.4651 48.6133 21.6761 48.6504 22.4144C48.6875 22.9594 48.7061 23.7681 48.7246 23.9439C48.8545 25.1393 49.2256 25.4733 49.2256 25.4733C49.2256 25.4733 52.6396 23.856 53.3076 24.5592C53.9199 25.2272 54.1426 35.9333 54.1426 35.9333L50.7842 32.9799L53.0293 38.166C53.0293 38.166 50.3574 38.5879 47.667 38.5879C44.9766 38.5879 41.8965 37.8495 41.8965 37.8495L44.457 32.892L40.876 35.9333Z" fill="#C09300"/>
</g>
<defs>
<clipPath id="clip0_87_811">
<rect width="95" height="60" rx="10" fill="white"/>
</clipPath>
</defs>
</svg>
