<svg width="95" height="60" viewBox="0 0 95 60" fill="none" xmlns="http://www.w3.org/2000/svg">
<g clip-path="url(#clip0_87_745)">
<path d="M0 0H95V60H0V0Z" fill="#E30A17"/>
<path d="M48.0926 20.8069C45.6667 19.1403 42.7223 18.2455 39.7038 18.2631C32.1482 18.2631 26.0371 23.6666 26.0371 30.3508C26.0371 37.035 32.1667 42.4385 39.7038 42.4385C42.8704 42.4385 45.7963 41.4912 48.0926 39.8947C42.5371 46.6666 32.2223 47.8947 25.0741 42.614C17.926 37.3333 16.6297 27.5789 22.2038 20.8069C27.7778 14.035 38.0741 12.8069 45.2223 18.0876C46.2963 18.8771 47.2593 19.8069 48.0926 20.8069ZM55.4815 32.3508L52.1297 36.1929L52.3519 31.2105L47.463 29.3859L52.5186 28.0526L52.8519 23.0876L55.7408 27.2455L60.8334 25.9999L57.5926 29.8596L60.426 34.0526L55.4815 32.3508Z" fill="white"/>
</g>
<defs>
<clipPath id="clip0_87_745">
<rect width="95" height="60" rx="10" fill="white"/>
</clipPath>
</defs>
</svg>
