<svg width="95" height="60" viewBox="0 0 95 60" fill="none" xmlns="http://www.w3.org/2000/svg">
<g clip-path="url(#clip0_87_821)">
<path d="M0 0H95V60H0V0Z" fill="#36B6CC"/>
<path d="M47.4999 41.9824C54.4955 41.9824 60.1666 36.6098 60.1666 29.9824C60.1666 23.355 54.4955 17.9824 47.4999 17.9824C40.5043 17.9824 34.8333 23.355 34.8333 29.9824C34.8333 36.6098 40.5043 41.9824 47.4999 41.9824Z" fill="#FFD400"/>
<path d="M47.4999 44.1227L42.3333 51.4385L41.0185 42.7192L33.0185 47.1929L35.8333 38.8069L26.574 39.5438L32.9444 33.1403L24.2592 29.9824L32.9259 26.8245L26.5555 20.421L35.8148 21.1578L32.9999 12.7719L40.9999 17.228L42.3148 8.5087L47.4814 15.8245L52.6481 8.5087L53.9629 17.228L61.9629 12.7719L59.1481 21.1578L68.4073 20.421L62.0555 26.842L70.7222 29.9824L62.0555 33.1403L68.4259 39.5438L59.1666 38.8069L61.9814 47.1929L53.9814 42.7368L52.6666 51.4561C52.6666 51.4385 47.4999 44.1227 47.4999 44.1227ZM47.4999 43.9824C55.6666 43.9824 62.2962 37.7017 62.2962 29.9648C62.2962 22.228 55.6666 15.9648 47.4999 15.9648C39.3333 15.9648 32.7036 22.2455 32.7036 29.9824C32.7036 37.7192 39.3333 43.9824 47.4999 43.9824ZM4.22217 4.96484C4.22217 4.40344 4.66661 3.96484 5.27772 3.96484H7.37032C7.96291 3.96484 8.42587 4.3859 8.42587 4.96484V6.9473C8.44439 7.49116 7.98143 7.9473 7.38883 7.9473H5.27772C4.70365 7.9473 4.22217 7.5087 4.22217 6.96484V4.96484ZM4.22217 12.9824C4.22217 12.421 4.66661 11.9824 5.27772 11.9824H7.37032C7.96291 11.9824 8.42587 12.4034 8.42587 12.9824V14.9648C8.44439 15.5087 7.98143 15.9648 7.38883 15.9648H5.27772C4.70365 15.9648 4.22217 15.5262 4.22217 14.9824V12.9824ZM4.22217 20.9824C4.22217 20.421 4.66661 19.9824 5.27772 19.9824H7.37032C7.96291 19.9824 8.42587 20.4034 8.42587 20.9824V22.9648C8.44439 23.5087 7.98143 23.9648 7.38883 23.9648H5.27772C4.70365 23.9648 4.22217 23.5262 4.22217 22.9824V20.9824ZM4.22217 28.9824C4.22217 28.421 4.66661 27.9824 5.27772 27.9824H7.37032C7.96291 27.9824 8.42587 28.4034 8.42587 28.9824V30.9648C8.44439 31.5087 7.98143 31.9648 7.38883 31.9648H5.27772C4.70365 31.9648 4.22217 31.5262 4.22217 30.9824V28.9824ZM4.22217 36.9999C4.22217 36.4385 4.66661 35.9999 5.27772 35.9999H7.37032C7.96291 35.9999 8.42587 36.421 8.42587 36.9999V38.9824C8.44439 39.5262 7.98143 39.9824 7.38883 39.9824H5.27772C4.70365 39.9824 4.22217 39.5438 4.22217 38.9999V36.9999ZM4.22217 44.9999C4.22217 44.4385 4.66661 43.9999 5.27772 43.9999H7.37032C7.96291 43.9999 8.42587 44.421 8.42587 44.9999V46.9824C8.44439 47.5262 7.98143 47.9824 7.38883 47.9824H5.27772C4.70365 47.9824 4.22217 47.5438 4.22217 46.9999V44.9999ZM4.22217 52.9999C4.22217 52.4385 4.66661 51.9999 5.27772 51.9999H7.37032C7.96291 51.9999 8.42587 52.421 8.42587 52.9999V54.9824C8.44439 55.5262 7.98143 55.9824 7.38883 55.9824H5.27772C4.70365 55.9824 4.22217 55.5438 4.22217 54.9999V52.9999ZM8.44439 48.9999C8.44439 48.4385 8.88883 47.9999 9.49995 47.9999H11.5925C12.1851 47.9999 12.6481 48.421 12.6481 48.9999V50.9824C12.6666 51.5262 12.2036 51.9824 11.6111 51.9824H9.49995C8.92587 51.9824 8.44439 51.5438 8.44439 50.9999V48.9999ZM8.44439 40.9999C8.44439 40.4385 8.88883 39.9999 9.49995 39.9999H11.5925C12.1851 39.9999 12.6481 40.421 12.6481 40.9999V42.9824C12.6666 43.5262 12.2036 43.9824 11.6111 43.9824H9.49995C8.92587 43.9824 8.44439 43.5438 8.44439 42.9999V40.9999ZM8.44439 32.9824C8.44439 32.421 8.88883 31.9824 9.49995 31.9824H11.5925C12.1851 31.9824 12.6481 32.4034 12.6481 32.9824V34.9648C12.6666 35.5087 12.2036 35.9648 11.6111 35.9648H9.49995C8.92587 35.9648 8.44439 35.5262 8.44439 34.9824V32.9824ZM8.44439 24.9824C8.44439 24.421 8.88883 23.9824 9.49995 23.9824H11.5925C12.1851 23.9824 12.6481 24.4034 12.6481 24.9824V26.9648C12.6666 27.5087 12.2036 27.9648 11.6111 27.9648H9.49995C8.92587 27.9648 8.44439 27.5262 8.44439 26.9824V24.9824ZM8.44439 16.9824C8.44439 16.421 8.88883 15.9824 9.49995 15.9824H11.5925C12.1851 15.9824 12.6481 16.4034 12.6481 16.9824V18.9648C12.6666 19.5087 12.2036 19.9648 11.6111 19.9648H9.49995C8.92587 19.9648 8.44439 19.5262 8.44439 18.9824V16.9824ZM8.44439 8.98239C8.44439 8.42098 8.88883 7.98239 9.49995 7.98239H11.5925C12.1851 7.98239 12.6481 8.40344 12.6481 8.98239V10.9648C12.6666 11.5087 12.2036 11.9648 11.6111 11.9648H9.49995C8.92587 11.9648 8.44439 11.5262 8.44439 10.9824V8.98239Z" fill="#FFD400"/>
</g>
<defs>
<clipPath id="clip0_87_821">
<rect width="95" height="60" rx="10" fill="white"/>
</clipPath>
</defs>
</svg>
