<svg width="95" height="60" viewBox="0 0 95 60" fill="none" xmlns="http://www.w3.org/2000/svg">
<g clip-path="url(#clip0_87_833)">
<path d="M0 0H95V60H0V0Z" fill="#EF3340"/>
<path d="M0 0H95V20H0V0Z" fill="#00B5E2"/>
<path d="M0 40H95V60H0V40Z" fill="#509E2F"/>
<path d="M49.1852 37.2983C44.9259 37.2983 41.4815 34.0351 41.4815 30C41.4815 25.9649 44.9259 22.7018 49.1852 22.7018C50.5185 22.7018 51.7592 23.0176 52.8518 23.579C51.1481 22 48.7963 21.0176 46.2222 21.0176C40.9815 21.0176 36.7407 25.0351 36.7407 30C36.7407 34.9649 40.9815 38.9825 46.2222 38.9825C48.7963 38.9825 51.1481 38 52.8518 36.4211C51.7592 36.9825 50.5185 37.2983 49.1852 37.2983Z" fill="white"/>
<path d="M55.1112 24.9475L56.1297 27.6668L58.8889 26.4212L57.5741 29.0352L60.4445 30.0001L57.5741 30.9651L58.8889 33.5791L56.1297 32.3335L55.1112 35.0528L54.0927 32.3335L51.3334 33.5791L52.6482 30.9651L49.7778 30.0001L52.6482 29.0352L51.3334 26.4212L54.0927 27.6668L55.1112 24.9475Z" fill="white"/>
</g>
<defs>
<clipPath id="clip0_87_833">
<rect width="95" height="60" rx="10" fill="white"/>
</clipPath>
</defs>
</svg>
