<svg width="95" height="61" viewBox="0 0 95 61" fill="none" xmlns="http://www.w3.org/2000/svg">
<g clip-path="url(#clip0_87_855)">
<path d="M0 0.994141H95V60.9941H0V0.994141Z" fill="#055E1C"/>
<path d="M34.0568 36.8629C34.0568 39.0241 35.8623 40.776 38.0898 40.776H50.1889C50.1889 42.5767 51.6937 44.0369 53.5499 44.0369H57.583C59.4392 44.0369 60.944 42.5769 60.944 40.776V36.8629H34.0568ZM61.2795 17.9497V27.0801C61.2795 28.5186 60.0734 29.6887 58.5907 29.6887V33.6018C62.2972 33.6018 65.3123 30.6763 65.3123 27.0801V17.9497H61.2795ZM32.3763 27.0803C32.3763 28.5187 31.1702 29.6889 29.6875 29.6889V33.602C33.394 33.602 36.4091 30.6765 36.4091 27.0803V17.9499H32.3761V27.0803H32.3763Z" fill="white"/>
<path d="M55.2301 17.9492H59.2632V27.0797H55.2301V17.9492ZM49.1806 23.1673C49.1806 23.5269 48.8791 23.8194 48.5083 23.8194C48.1376 23.8194 47.8361 23.5269 47.8361 23.1673V17.9497H43.8031V23.1673C43.8031 23.5269 43.5015 23.8194 43.1308 23.8194C42.7601 23.8194 42.4586 23.5269 42.4586 23.1673V17.9497H38.4255V23.1673C38.4255 25.6845 40.5363 27.7325 43.1306 27.7325C44.1298 27.7325 45.0566 27.4279 45.8194 26.9104C46.582 27.4279 47.509 27.7325 48.5082 27.7325C48.7093 27.7325 48.9071 27.7188 49.1019 27.6947C48.8162 28.8371 47.7558 29.689 46.4916 29.689V33.602C50.1981 33.602 53.2132 30.6765 53.2132 27.0804V17.9497H49.1802L49.1806 23.1673Z" fill="white"/>
<path d="M38.4255 29.6882H44.4746V33.6013H38.4255V29.6882Z" fill="white"/>
</g>
<defs>
<clipPath id="clip0_87_855">
<rect y="0.994141" width="95" height="60" rx="10" fill="white"/>
</clipPath>
</defs>
</svg>
