<svg width="95" height="61" viewBox="0 0 95 61" fill="none" xmlns="http://www.w3.org/2000/svg">
<g clip-path="url(#clip0_87_840)">
<path d="M0 0.290771H95V60.2895H0V0.290771Z" fill="white"/>
<path d="M0 0.290771H95V20.2903H0V0.290771Z" fill="#D80027"/>
<path d="M0 40.29H95V60.2896H0V40.29Z" fill="#6DA544"/>
<path d="M41.9927 38.1164H53.0075V33.6814L50.8045 34.725L47.5001 31.5947L44.1957 34.725L41.9927 33.6814V38.1164ZM35.6909 32.8988L36.2036 34.3937H37.8624L36.5203 35.3174L37.033 36.8119L35.6909 35.8882L34.3487 36.8119L34.8613 35.3174L33.5193 34.3937H35.1781L35.6909 32.8988ZM37.2803 27.6816L37.793 29.1761H39.4518L38.1097 30.0999L38.6224 31.5947L37.2803 30.6708L35.9381 31.5947L36.4507 30.0999L35.1087 29.1761H36.7675L37.2803 27.6816ZM41.824 23.7686L42.3367 25.2631H43.9954L42.6534 26.1868L43.1661 27.6816L41.824 26.7577L40.4817 27.6816L40.9944 26.1868L39.6524 25.2631H41.3111L41.824 23.7686ZM59.3092 32.8988L58.7965 34.3937H57.1377L58.4798 35.3174L57.9671 36.8119L59.3092 35.8882L60.6514 36.8119L60.1388 35.3174L61.4808 34.3937H59.822L59.3092 32.8988ZM57.7198 27.6816L57.2071 29.1761H55.5483L56.8904 30.0999L56.3777 31.5947L57.7198 30.6708L59.062 31.5947L58.5494 30.0999L59.8914 29.1761H58.2326L57.7198 27.6816ZM53.1761 23.7686L52.6635 25.2631H51.0047L52.3467 26.1868L51.8341 27.6816L53.1761 26.7577L54.5184 27.6816L54.0057 26.1868L55.3478 25.2631H53.689L53.1761 23.7686ZM47.5001 21.8118L48.0127 23.3064H49.6717L48.3295 24.2303L48.8421 25.7248L47.5001 24.8013L46.158 25.7248L46.6707 24.2303L45.3284 23.3064H46.9874L47.5001 21.8118Z" fill="#FFDA44"/>
</g>
<defs>
<clipPath id="clip0_87_840">
<rect y="0.290039" width="95" height="60" rx="10" fill="white"/>
</clipPath>
</defs>
</svg>
